<svg width="17" height="18" viewBox="0 0 17 18" fill="none" xmlns="http://www.w3.org/2000/svg">
<g clip-path="url(#clip0_29519_30)">
<path d="M3.10608 5.30821V2.4887H8.82083V5.30821H10.813V2.49146C10.813 1.30142 9.84485 0.333252 8.65482 0.333252H3.27209C2.08206 0.333252 1.11389 1.30142 1.11389 2.49146V5.30821H3.10608Z" fill="white"/>
<path d="M4.10217 3.48486H7.82474V5.30828H4.10217V3.48486Z" fill="white"/>
<path d="M15.7422 4.33357V2.78906H14.7461V4.33357H13.6761V2.78906H12.68V4.33357H12.0032V5.71137C12.0032 6.7575 12.7348 7.63539 13.713 7.8619V12.5574C13.713 12.8313 13.503 13.0673 13.2294 13.0808C12.937 13.0952 12.6945 12.8615 12.6945 12.5722V9.61782C12.6945 8.57873 11.8521 7.73633 10.8131 7.73633V6.30441H1.11389V14.2707C1.51147 14.0609 1.96383 13.9414 2.44378 13.9414H9.48314C9.96309 13.9414 10.4154 14.0609 10.813 14.2707V8.73242C11.302 8.73242 11.6984 9.1288 11.6984 9.61782V12.5455C11.6984 13.3878 12.3877 14.0917 13.2299 14.0773C14.0479 14.0633 14.7091 13.3935 14.7091 12.5722V7.8619C15.6873 7.63539 16.4189 6.7575 16.4189 5.71137V4.33357H15.7422ZM6.24484 12.7349L5.31372 12.381L5.98711 10.6091H4.49546L5.68291 7.48714L6.61392 7.84122L5.94003 9.61304H7.43125L6.24484 12.7349Z" fill="white"/>
<path d="M9.48311 14.9375H2.44375C1.41502 14.9375 0.581055 15.7715 0.581055 16.8002V17.3333H11.3458V16.8002C11.3458 15.7715 10.5119 14.9375 9.48311 14.9375Z" fill="white"/>
</g>
<defs>
<clipPath id="clip0_29519_30">
<rect width="17" height="17" fill="white" transform="translate(0 0.333252)"/>
</clipPath>
</defs>
</svg>
