<svg width="14" height="15" viewBox="0 0 14 15" fill="none" xmlns="http://www.w3.org/2000/svg">
<g clip-path="url(#clip0_3075_1443)">
<path d="M5.16334 13.3736C5.03518 13.525 4.85389 13.3451 4.90363 13.1356L5.84623 9.17097C5.92063 8.87322 5.80428 8.56038 5.55343 8.38357L3.46839 7.01663C3.35532 6.92115 3.33993 6.75252 3.43388 6.63814L8.07146 1.41641C8.20206 1.26892 8.38671 1.45962 8.32395 1.67252L7.18561 5.53121C7.08938 5.83795 7.20286 6.17168 7.4661 6.35625L9.55114 7.73476C9.6624 7.8288 9.67906 7.99409 9.58879 8.10841L5.16334 13.3736Z" fill="#FFA800"/>
<path d="M12.5442 10.5347C12.5442 10.9346 12.22 11.2588 11.8201 11.2588H7.57181L9.95976 8.41802C10.096 8.25272 10.1552 8.03712 10.1225 7.82542C10.0963 7.62491 9.98582 7.44507 9.81881 7.33107L7.73281 5.95352C7.64925 5.88423 7.61627 5.77106 7.64952 5.66773L8.27807 3.53467H11.8201C12.22 3.53467 12.5442 3.85888 12.5442 4.25881V10.5347Z" fill="#FFA800"/>
<path d="M13.9925 8.60365C13.9925 8.73695 13.8844 8.84504 13.7511 8.84504H13.027V5.94849H13.7511C13.8844 5.94849 13.9925 6.05655 13.9925 6.18988L13.9925 8.60365Z" fill="#FFA800"/>
<path d="M4.85388 11.2588L4.73802 11.7416H3.13043C2.99713 11.7416 2.88904 11.6335 2.88904 11.5002C2.88904 11.3669 2.9971 11.2588 3.13043 11.2588H4.85388V11.2588Z" fill="#FFA800"/>
<path d="M2.16491 11.7416H1.44079C1.30749 11.7416 1.1994 11.6335 1.1994 11.5002C1.1994 11.3669 1.30746 11.2588 1.44079 11.2588H2.16494C2.29824 11.2588 2.40633 11.3669 2.40633 11.5002C2.40633 11.6335 2.29824 11.7416 2.16491 11.7416Z" fill="#FFA800"/>
<path d="M3.53354 7.6383H0.233883C0.100583 7.6383 -0.00750732 7.53024 -0.00750732 7.39691C-0.00750732 7.26361 0.100555 7.15552 0.233883 7.15552H2.97113C3.02319 7.26317 3.10323 7.35488 3.20284 7.42103L3.53354 7.6383Z" fill="#FFA800"/>
<path d="M5.97388 3.05203L5.54664 3.53478H3.61319C3.47989 3.53478 3.3718 3.42672 3.3718 3.29339C3.3718 3.16006 3.47986 3.052 3.61319 3.052L5.97388 3.05203Z" fill="#FFA800"/>
<path d="M2.64767 3.53478H1.92355C1.79025 3.53478 1.68216 3.42672 1.68216 3.29339C1.68216 3.16006 1.79022 3.052 1.92355 3.052H2.64769C2.781 3.052 2.88909 3.16006 2.88909 3.29339C2.88909 3.42672 2.781 3.53478 2.64767 3.53478Z" fill="#FFA800"/>
<path d="M4.68734 4.50027L4.25768 4.98303H0.716641C0.58334 4.98303 0.47525 4.87496 0.47525 4.74163C0.47525 4.60831 0.583313 4.50024 0.716641 4.50024H4.68734V4.50027Z" fill="#FFA800"/>
<path d="M3.61558 5.70706L3.18593 6.18981H2.64764C2.51434 6.18981 2.40625 6.08175 2.40625 5.94842C2.40625 5.81509 2.51431 5.70703 2.64764 5.70703H3.61558V5.70706Z" fill="#FFA800"/>
<path d="M1.68215 6.18981H1.1994C1.0661 6.18981 0.958008 6.08175 0.958008 5.94842C0.958008 5.81509 1.06607 5.70703 1.1994 5.70703H1.68215C1.81545 5.70703 1.92354 5.81509 1.92354 5.94842C1.92354 6.08175 1.81545 6.18981 1.68215 6.18981Z" fill="#FFA800"/>
<path d="M5.19904 9.81057L5.08319 10.2933H0.475247C0.341946 10.2933 0.233856 10.1853 0.233856 10.0519C0.233856 9.91861 0.341919 9.81055 0.475247 9.81055H5.19904V9.81057Z" fill="#FFA800"/>
<path d="M5.37765 9.05999L5.3704 9.08654H3.37179C3.23849 9.08654 3.1304 8.97848 3.1304 8.84515C3.1304 8.71182 3.23846 8.60376 3.37179 8.60376H5.00834L5.28834 8.78721C5.36832 8.85327 5.40308 8.95947 5.37765 9.05999Z" fill="#FFA800"/>
<path d="M2.4063 9.08654H1.44079C1.30749 9.08654 1.1994 8.97848 1.1994 8.84515C1.1994 8.71182 1.30746 8.60376 1.44079 8.60376H2.4063C2.5396 8.60376 2.64769 8.71182 2.64769 8.84515C2.64769 8.97848 2.5396 9.08654 2.4063 9.08654Z" fill="#FFA800"/>
</g>
<defs>
<clipPath id="clip0_3075_1443">
<rect width="14" height="14" fill="white" transform="translate(-0.00750732 0.396973)"/>
</clipPath>
</defs>
</svg>
