<svg width="18" height="17" viewBox="0 0 18 17" fill="none" xmlns="http://www.w3.org/2000/svg">
<path d="M6.14275 14.7857C6.14275 15.7321 5.37545 16.5 4.42847 16.5C3.48148 16.5 2.71418 15.7321 2.71418 14.7857C2.71418 13.8393 3.48148 13.0714 4.42847 13.0714C5.37545 13.0714 6.14275 13.8393 6.14275 14.7857ZM14.1428 13.0714C13.1958 13.0714 12.4285 13.8393 12.4285 14.7857C12.4285 15.7321 13.1958 16.5 14.1428 16.5C15.0897 16.5 15.857 15.7321 15.857 14.7857C15.857 13.8393 15.0897 13.0714 14.1428 13.0714ZM17.5713 11.3571V14.7857H16.9999C16.9999 13.2087 15.7198 11.9286 14.1428 11.9286C12.5657 11.9286 11.2856 13.2087 11.2856 14.7857H7.28561C7.28561 13.2087 6.00548 11.9286 4.42847 11.9286C2.85146 11.9286 1.57132 13.2087 1.57132 14.7857H0.428467V11.3571C0.428467 10.6713 0.576904 9.61998 0.76552 8.95703L1.28003 7.15737C1.51998 6.3058 2.40559 5.64286 3.28561 5.64286H8.9999C9.75436 5.64286 10.8057 6.02009 11.3883 6.50558L13.857 8.56306L16.097 9.31138C16.9257 9.58594 17.5713 10.4827 17.5713 11.3571ZM10.9246 9.64286H9.21027V7.70759L7.07523 10.7857H8.78952V12.721L10.9246 9.64286ZM14.1428 2.21429V1.07143H12.9999V0.5H11.2856C10.2237 0.5 9.33639 1.23103 9.08081 2.21429H5.57132C4.62601 2.21429 3.85704 2.98326 3.85704 3.92857V4.5H4.9999V3.92857C4.9999 3.61328 5.25603 3.35714 5.57132 3.35714H9.08081C9.33639 4.3404 10.2237 5.07143 11.2856 5.07143H12.9999V4.5H14.1428V3.35714H12.9999V2.21429H14.1428Z" fill="white"/>
</svg>
