<svg width="13" height="14" viewBox="0 0 13 14" fill="none" xmlns="http://www.w3.org/2000/svg">
<g clip-path="url(#clip0_3075_1439)">
<path d="M4.06015 7.39677H8.93234V9.29151C8.93234 9.36324 8.90392 9.43226 8.85303 9.48288L7.49964 10.8363C7.44903 10.8872 7.38001 10.9156 7.30828 10.9156H5.68421C5.61248 10.9156 5.54346 10.8872 5.49284 10.8363L4.13946 9.48288C4.08857 9.43226 4.06015 9.36324 4.06015 9.29151V7.39677ZM8.93234 5.23135H4.06015C3.91074 5.23135 3.78947 5.35262 3.78947 5.50203V6.58474C3.78947 6.73415 3.91074 6.85542 4.06015 6.85542H8.93234C9.08175 6.85542 9.20302 6.73415 9.20302 6.58474V5.50203C9.20302 5.35262 9.08175 5.23135 8.93234 5.23135ZM8.39098 2.65992C8.39098 2.4358 8.20909 2.25391 7.98497 2.25391C7.76085 2.25391 7.57895 2.4358 7.57895 2.65992V4.69H8.39098V2.65992ZM5.68421 12.269C5.68421 12.4184 5.80548 12.5396 5.95489 12.5396H7.0376C7.18701 12.5396 7.30828 12.4184 7.30828 12.269V11.4569H5.68421V12.269ZM5.41354 2.65992C5.41354 2.4358 5.23164 2.25391 5.00752 2.25391C4.7834 2.25391 4.60151 2.4358 4.60151 2.65992V4.69H5.41354V2.65992ZM6.22557 13.893H6.76692V13.081H6.22557V13.893Z" fill="#3EBF80"/>
</g>
<defs>
<clipPath id="clip0_3075_1439">
<rect width="12.9925" height="12.9925" fill="white" transform="translate(0 0.900635)"/>
</clipPath>
</defs>
</svg>
