<svg width="14" height="13" viewBox="0 0 14 13" fill="none" xmlns="http://www.w3.org/2000/svg">
<g clip-path="url(#clip0_3130_1563)">
<path d="M3.24903 12.5862C3.17865 12.7031 3.20653 12.8544 3.31453 12.9386C3.42226 13.0228 3.57574 13.0133 3.67264 12.9167L11.2516 5.3377C11.3339 5.25515 11.3545 5.12928 11.3025 5.02534C11.2502 4.92113 11.1387 4.86131 11.0221 4.87836L7.79559 5.33933L10.7506 0.413817C10.8209 0.296343 10.7928 0.145305 10.6851 0.0611244C10.5771 -0.0233268 10.4236 -0.0135824 10.3272 0.0830493L2.74828 7.66201C2.66599 7.74456 2.64542 7.87043 2.69739 7.97437C2.74936 8.07831 2.86061 8.13786 2.97781 8.12135L6.20401 7.66038L3.24903 12.5862Z" fill="#231F20"/>
</g>
<defs>
<clipPath id="clip0_3130_1563">
<rect width="12.9925" height="12.9925" fill="white" transform="translate(0.503662 0.00366211)"/>
</clipPath>
</defs>
</svg>
