<svg width="16" height="16" viewBox="0 0 16 16" fill="none" xmlns="http://www.w3.org/2000/svg">
<path d="M11.7268 5.33319L4.27342 5.33319C4.14157 5.33374 4.01285 5.37338 3.90353 5.44709C3.7942 5.5208 3.70919 5.62527 3.65924 5.74729C3.60929 5.86931 3.59664 6.0034 3.6229 6.13261C3.64916 6.26182 3.71314 6.38034 3.80675 6.47319L7.52675 10.1932C7.58873 10.2557 7.66246 10.3053 7.7437 10.3391C7.82494 10.373 7.91208 10.3904 8.00009 10.3904C8.08809 10.3904 8.17523 10.373 8.25647 10.3391C8.33771 10.3053 8.41144 10.2557 8.47342 10.1932L12.1934 6.47319C12.287 6.38034 12.351 6.26182 12.3773 6.13261C12.4035 6.0034 12.3909 5.86931 12.3409 5.74729C12.291 5.62527 12.206 5.5208 12.0966 5.44709C11.9873 5.37338 11.8586 5.33374 11.7268 5.33319Z" fill="#E53935"/>
</svg>
