<svg width="22" height="22" viewBox="0 0 22 22" fill="none" xmlns="http://www.w3.org/2000/svg">
<path fill-rule="evenodd" clip-rule="evenodd" d="M10.7103 21.0409L5.48597 14.8878C5.38809 14.7725 5.36729 14.6202 5.43084 14.4828C5.49439 14.3455 5.62403 14.2627 5.77523 14.2627H8.20847V9.07801C8.20847 8.66013 8.54956 8.31909 8.96743 8.31909H13.0317C13.4496 8.31909 13.7906 8.66005 13.7906 9.07801V14.2627H16.2239C16.3751 14.2627 16.5047 14.3455 16.5683 14.4828C16.6318 14.6202 16.6111 14.7724 16.5131 14.8878L11.2888 21.0409C11.2141 21.1288 11.1149 21.1748 10.9995 21.1748C10.8842 21.1748 10.7848 21.1287 10.7103 21.0409Z" fill="white"/>
<path fill-rule="evenodd" clip-rule="evenodd" d="M10.7098 21.0409L10.5693 20.8755L15.6532 14.8878C15.7512 14.7724 15.7719 14.6202 15.7084 14.4828C15.6448 14.3455 15.5152 14.2627 15.364 14.2627H16.2234C16.3746 14.2627 16.5042 14.3455 16.5678 14.4828C16.6313 14.6202 16.6106 14.7724 16.5126 14.8878L11.2883 21.0409C11.2137 21.1288 11.1144 21.1748 10.999 21.1748C10.8837 21.1748 10.7843 21.1287 10.7098 21.0409ZM12.1718 8.31909C12.5897 8.31909 12.9307 8.66005 12.9307 9.07801V14.2627H13.7901V9.07801C13.7901 8.66005 13.4491 8.31909 13.0312 8.31909H12.1718Z" fill="white"/>
<path fill-rule="evenodd" clip-rule="evenodd" d="M11.5678 0.962145L11.3347 4.9643H14.5063C14.5911 4.9643 14.6637 5.01006 14.7002 5.08659C14.7367 5.16307 14.7267 5.24828 14.6734 5.31419L10.1241 10.9417C10.0875 10.987 10.0275 11.0021 9.97388 10.9795C9.92016 10.9569 9.88906 10.9036 9.89584 10.8457L10.3743 6.74574H7.19311C7.10898 6.74574 7.03696 6.70071 7.00005 6.62508C6.96314 6.54946 6.97199 6.46498 7.02386 6.39864L11.3375 0.875262C11.3728 0.830102 11.4309 0.813774 11.4845 0.834012C11.5382 0.85425 11.5711 0.90491 11.5678 0.962145Z" fill="white"/>
<path fill-rule="evenodd" clip-rule="evenodd" d="M11.5678 0.962145L11.5226 1.73876L7.88327 6.39859C7.83145 6.46494 7.8226 6.54941 7.85947 6.62504C7.89638 6.70066 7.96839 6.7457 8.05253 6.7457H7.19311C7.10898 6.7457 7.03696 6.70066 7.00005 6.62504C6.96314 6.54941 6.97199 6.46494 7.02386 6.39859L11.3375 0.875262C11.3728 0.830102 11.4309 0.813774 11.4846 0.834012C11.5382 0.85425 11.5711 0.90491 11.5678 0.962145ZM10.8486 10.0455L11.2337 6.74574H10.3743L9.8958 10.8457C9.88906 10.9036 9.92016 10.9569 9.97383 10.9795C10.0275 11.0021 10.0874 10.987 10.1241 10.9417L10.8486 10.0455Z" fill="white"/>
</svg>
