<svg width="18" height="18" viewBox="0 0 18 18" fill="none" xmlns="http://www.w3.org/2000/svg">
<g clip-path="url(#clip0_3502_4295)">
<path d="M5.99964 5.99988C9.43351 5.99988 11.9993 4.64241 11.9993 3.42862C11.9993 2.21494 9.43345 0.857422 5.99964 0.857422C2.56583 0.857422 0 2.21494 0 3.42862C0 4.64241 2.56577 5.99988 5.99964 5.99988Z" fill="white"/>
<path d="M5.99964 16.2853C6.50084 16.2853 6.98323 16.2562 7.44208 16.2031C7.0553 15.706 6.73543 15.1544 6.49581 14.562C6.33116 14.5675 6.16594 14.5714 5.99958 14.5714C4.03748 14.5714 2.17933 14.1826 0.767571 13.4767C0.489597 13.3377 0.233797 13.1883 0 13.0303V13.7141C0 14.9278 2.56577 16.2853 5.99964 16.2853Z" fill="white"/>
<path d="M5.9997 12.8569C6.0173 12.8569 6.03461 12.8566 6.05216 12.8565C6.01701 12.5756 5.99867 12.2894 5.99867 11.9991C5.99867 11.7089 6.01695 11.4229 6.05216 11.1422C6.03461 11.1422 6.01724 11.1428 5.9997 11.1428C4.03759 11.1428 2.1795 10.754 0.767685 10.0481C0.489654 9.90915 0.233797 9.75982 0 9.60181V10.2856C5.71492e-05 11.4993 2.56583 12.8569 5.9997 12.8569Z" fill="white"/>
<path d="M5.9997 9.42833C6.16977 9.42833 6.33756 9.4249 6.50324 9.41839C6.76932 8.76557 7.13296 8.16259 7.57633 7.62784C7.06301 7.68442 6.53547 7.71443 5.9997 7.71443C4.03759 7.71443 2.1795 7.32564 0.767685 6.61973C0.489654 6.48069 0.233797 6.33141 0 6.17334V6.85719C5.71492e-05 8.07092 2.56583 9.42833 5.9997 9.42833Z" fill="white"/>
<path d="M8.5711 9.15785C8.2002 9.71546 7.9352 10.3492 7.80484 11.0302C7.74467 11.3441 7.71289 11.668 7.71289 11.9991C7.71289 12.2481 7.73106 12.493 7.76541 12.7326C7.84982 13.3213 8.03424 13.8779 8.3009 14.385C8.5807 14.9171 8.95086 15.3946 9.39108 15.7966C10.3059 16.6322 11.5226 17.1426 12.8563 17.1426C15.6924 17.1426 17.9997 14.8352 17.9997 11.9991C17.9997 9.163 15.6924 6.85571 12.8563 6.85571C12.5632 6.85571 12.2758 6.88074 11.9959 6.92806C10.5701 7.16918 9.3421 7.99893 8.5711 9.15785Z" fill="white"/>
</g>
<defs>
<clipPath id="clip0_3502_4295">
<rect width="18" height="18" fill="white"/>
</clipPath>
</defs>
</svg>
