<svg width="10" height="18" viewBox="0 0 10 18" fill="none" xmlns="http://www.w3.org/2000/svg">
<path d="M5.85756 4.28571H4.14328V0.857143C4.14328 0.383571 4.52685 0 5.00042 0C5.47399 0 5.85756 0.383571 5.85756 0.857143V4.28571ZM8.85756 0.857143C8.85756 0.383571 8.47399 0 8.00042 0C7.52685 0 7.14328 0.383571 7.14328 0.857143V4.28571H8.85756V0.857143ZM4.57185 18H5.42899V16.2857H4.57185V18ZM2.85756 0.857143C2.85756 0.383571 2.47399 0 2.00042 0C1.52685 0 1.14328 0.383571 1.14328 0.857143V4.28571H2.85756V0.857143ZM3.7147 13.5587V15C3.7147 15.2366 3.9067 15.4286 4.14328 15.4286H5.85756C6.09413 15.4286 6.28613 15.2366 6.28613 15V13.5587C5.87256 13.6569 5.44356 13.7143 5.00042 13.7143C4.55728 13.7143 4.12828 13.6569 3.7147 13.5587ZM9.28613 5.14286H0.714704C0.478133 5.14286 0.286133 5.33486 0.286133 5.57143V8.14286C0.286133 10.7421 2.40113 12.8571 5.00042 12.8571C7.5997 12.8571 9.7147 10.7421 9.7147 8.14286V5.57143C9.7147 5.33486 9.5227 5.14286 9.28613 5.14286Z" fill="white"/>
</svg>
