<svg width="13" height="16" viewBox="0 0 13 16" fill="none" xmlns="http://www.w3.org/2000/svg">
<path d="M3.63538 0.0872179C4.07296 -0.0447152 4.54253 -0.0227966 4.96592 0.149325C5.38931 0.321446 5.74097 0.633386 5.96238 1.03322L6.03638 1.18222L6.69838 2.65322C6.8989 3.09978 6.9639 3.59539 6.88533 4.07856C6.80675 4.56173 6.58806 5.0112 6.25638 5.37122L6.12338 5.50322L5.08038 6.47622C4.89238 6.65422 5.03338 7.34322 5.71338 8.52122C6.32538 9.58122 6.82338 10.0762 7.06838 10.1032H7.11138L7.16438 10.0932L9.21438 9.46622C9.48989 9.38172 9.78391 9.37838 10.0613 9.45659C10.3386 9.53479 10.5876 9.69124 10.7784 9.90722L10.8694 10.0222L12.2264 11.9022C12.4923 12.2707 12.6249 12.7188 12.6021 13.1727C12.5794 13.6265 12.4028 14.0591 12.1014 14.3992L11.9794 14.5252L11.4374 15.0392C10.9507 15.5001 10.3418 15.8116 9.68328 15.9366C9.02471 16.0616 8.3441 15.9948 7.72238 15.7442C5.78738 14.9642 4.02938 13.1822 2.43238 10.4162C0.832377 7.64322 0.167377 5.22622 0.464377 3.15622C0.554251 2.53048 0.811918 1.94077 1.21001 1.44971C1.60811 0.958654 2.13177 0.584579 2.72538 0.367218L2.91838 0.303218L3.63538 0.0872179Z" fill="#2490EF"/>
</svg>
