<svg id='charger_logo_dark' width="237" height="49" viewBox="0 0 237 49" fill="none" xmlns="http://www.w3.org/2000/svg">
<path d="M153.055 27.9534C153.055 30.1585 153.055 32.3807 153.055 34.8259C147.644 34.7316 143.235 32.5952 139.998 28.3052C135.834 22.7883 135.135 16.6536 138.127 10.3903C141.069 4.25564 146.152 1.17545 152.996 0.763611C152.996 3.10593 152.996 5.37104 152.996 7.77342C149.793 8.05655 147.045 9.32638 145.132 12.132C143.884 13.9595 143.311 15.993 143.412 18.2152C143.648 23.4061 146.531 26.3232 153.055 27.9534Z" fill="white"/>
<path d="M168.143 29.9955C165.901 29.9955 163.751 29.9955 161.425 29.9955C161.425 27.3271 161.425 24.6673 161.425 21.8874C158.694 21.8874 156.123 21.8874 153.434 21.8874C153.434 19.4936 153.434 17.2371 153.434 14.8776C158.289 14.8776 163.153 14.8776 168.134 14.8776C168.143 19.8454 168.143 24.8389 168.143 29.9955Z" fill="#2672FF"/>
<path d="M32.5446 30.2872C29.1476 33.6934 24.7645 35.2292 19.8588 35.2292C7.2658 35.2292 2.26736 26.9753 2.21679 17.8034C2.17465 9.12047 7.73783 0 19.8588 0C24.3852 0 28.5829 1.77605 31.9798 5.18228L27.3607 9.84118C25.3799 7.87638 22.5055 7.05271 19.8588 7.05271C12.357 7.05271 9.43207 12.9557 9.48264 17.8548C9.53322 22.754 12.1209 28.3224 19.8588 28.3224C22.4971 28.3224 25.9868 27.1212 27.9676 25.1049L32.5446 30.2872Z" fill="white"/>
<path d="M57.3513 34.4227V21.1238H42.5835V34.4227H35.2334V0.815094H42.592V14.2599H57.3513V0.815094H64.6171V34.4227H57.3513Z" fill="white"/>
<path d="M93.6636 28.6141H76.7297L74.3274 34.3712H66.4041L81.2139 0.772202H89.23L104.04 34.3798H96.0659L93.6636 28.6141ZM85.2177 8.35686L79.5112 21.9904H90.8736L85.2177 8.35686Z" fill="white"/>
<path d="M135.118 34.3712H126.959L118.513 23.3288H113.185V34.3712H105.827V0.772202C111.205 0.772202 116.153 0.772202 121.488 0.772202C129.462 0.772202 133.702 6.19472 133.702 12.0977C133.651 16.4649 132.378 20.3516 126.065 22.6596L135.118 33.7964V34.3712ZM113.185 7.19857V16.9883H121.581C124.978 16.9883 126.436 14.3971 126.436 12.2865C126.385 9.97847 124.927 7.19857 121.488 7.19857H113.185Z" fill="white"/>
<path d="M198.892 35.0319H173.757C173.757 23.8436 173.757 12.6125 173.757 1.42427H198.235V8.28822H180.972V14.7661H197.24V21.3469H180.972V28.1164H198.892V35.0319Z" fill="white"/>
<path d="M232.28 35.0319H224.12L215.683 23.9895H210.356V35.0319H202.997V1.42427C208.375 1.42427 213.323 1.42427 218.658 1.42427C226.632 1.42427 230.872 6.84679 230.872 12.7498C230.822 17.117 229.549 21.0037 223.235 23.3117L232.288 34.4484V35.0319H232.28ZM210.347 7.85922V17.6489H218.743C222.14 17.6489 223.598 15.0578 223.598 12.9471C223.547 10.6391 222.089 7.85922 218.642 7.85922H210.347Z" fill="white"/>
<path d="M6.69263 48.9056V43.0026H10.6627V43.5603H7.27423V45.7997H10.5363V46.3574H7.27423V48.9056H6.69263Z" fill="white"/>
<path d="M20.6849 43.0026V46.6062C20.6849 48.2021 19.6566 48.9657 18.4006 48.9657C17.1447 48.9657 16.0826 48.2021 16.0826 46.6062V43.0026H16.6642V46.6062C16.6642 47.7302 17.4144 48.4166 18.4006 48.4166C19.2773 48.4166 20.1033 47.8331 20.1033 46.6062V43.0026H20.6849Z" fill="white"/>
<path d="M27.0656 43.0026V48.3479H30.2855V48.9056H26.484V43.0026H27.0656Z" fill="white"/>
<path d="M36.0679 43.0026V48.3479H39.2878V48.9056H35.4863V43.0026H36.0679Z" fill="white"/>
<path d="M45.5337 45.9541L47.405 43.0026H48.0877V43.0198L45.8287 46.529V48.9056H45.2471V46.529L43.0219 43.0198V43.0026H43.6962L45.5337 45.9541Z" fill="white"/>
<path d="M64.1114 48.0991C63.5213 48.6997 62.7796 48.9914 61.9957 48.9914C59.9896 48.9914 58.9865 47.6272 58.9781 45.9799C58.9697 44.3668 59.9811 42.9082 61.9957 42.9082C62.7627 42.9082 63.5466 43.1828 64.0524 43.792L63.6984 44.1523C63.2263 43.6804 62.6194 43.4402 61.9957 43.4402C60.3773 43.4402 59.5597 44.6585 59.5597 45.9627C59.5597 47.3441 60.3773 48.4337 61.9957 48.4337C62.6194 48.4337 63.2685 48.1763 63.7321 47.7044L64.1114 48.0991Z" fill="white"/>
<path d="M73.5688 48.9056V46.2887H70.0539V48.9056H69.4723V43.0026H70.0539V45.731H73.5688V43.0026H74.1504V48.9056H73.5688Z" fill="white"/>
<path d="M83.9619 47.5414H80.5987L80.0002 48.9056H79.3849L81.9895 43.0026H82.5711L85.1757 48.9056H84.5603L83.9619 47.5414ZM80.8263 47.0009H83.7259L82.2761 43.6461L80.8263 47.0009Z" fill="white"/>
<path d="M95.1556 48.9056H94.4054L92.4836 46.7263H90.9832V48.9056H90.4016V43.0026C91.2698 43.0026 92.138 43.0026 93.0062 43.0026C94.2958 43.0026 94.9196 43.8778 94.928 44.8731C94.9365 45.7911 94.4054 46.6319 93.1832 46.6834L95.1556 48.9056ZM90.9832 43.5603V46.1772H92.9725C93.8997 46.1772 94.3464 45.6195 94.3464 44.8816C94.3464 44.1438 93.8997 43.5689 93.0062 43.5689H90.9832V43.5603Z" fill="white"/>
<path d="M104.95 44.1609C104.478 43.6804 103.787 43.4488 103.172 43.4488C101.587 43.4488 100.736 44.65 100.744 45.9713C100.744 47.2583 101.545 48.408 103.172 48.408C103.753 48.408 104.36 48.2021 104.841 47.7645V46.2716H102.944V45.731H105.397V48.0133C104.799 48.6396 104.082 48.9828 103.18 48.9828C101.157 48.9828 100.171 47.5757 100.171 45.9799C100.163 44.1781 101.351 42.8911 103.18 42.8911C103.947 42.8911 104.723 43.1828 105.313 43.7748L104.95 44.1609Z" fill="white"/>
<path d="M115.133 48.9056H110.977C110.977 46.9408 110.977 44.9674 110.977 43.0026H115.065V43.5603H111.559V45.6796H114.905V46.2287H111.559V48.3565H115.141V48.9056H115.133Z" fill="white"/>
<path d="M122.702 43.0026C124.666 43.0026 125.61 44.4355 125.61 45.8941C125.61 47.387 124.733 48.9056 122.702 48.9056C122.028 48.9056 121.328 48.9056 120.654 48.9056V43.0026H122.702ZM121.235 48.3565H122.702C124.32 48.3565 125.045 47.0781 125.02 45.8855C124.995 44.7358 124.27 43.5603 122.702 43.5603H121.235V48.3565Z" fill="white"/>
<path d="M137.411 48.9056V43.0026H141.381V43.5603H137.992V45.7997H141.254V46.3574H137.992V48.9056H137.411Z" fill="white"/>
<path d="M151.403 43.0026V46.6062C151.403 48.2021 150.374 48.9657 149.119 48.9657C147.863 48.9657 146.801 48.2021 146.801 46.6062V43.0026H147.382V46.6062C147.382 47.7302 148.132 48.4166 149.119 48.4166C149.995 48.4166 150.821 47.8331 150.821 46.6062V43.0026H151.403Z" fill="white"/>
<path d="M157.784 43.0026V48.3479H161.004V48.9056H157.202V43.0026H157.784Z" fill="white"/>
<path d="M166.786 43.0026V48.3479H170.006V48.9056H166.204V43.0026H166.786Z" fill="white"/>
<path d="M176.252 45.9541L178.123 43.0026H178.806V43.0198L176.547 46.529V48.9056H175.965V46.529L173.74 43.0198V43.0026H174.414L176.252 45.9541Z" fill="white"/>
<path d="M194.821 48.9056H194.071L192.149 46.7263H190.648V48.9056H190.067V43.0026C190.935 43.0026 191.803 43.0026 192.671 43.0026C193.961 43.0026 194.585 43.8778 194.593 44.8731C194.602 45.7911 194.071 46.6319 192.848 46.6834L194.821 48.9056ZM190.64 43.5603V46.1772H192.629C193.557 46.1772 194.003 45.6195 194.003 44.8816C194.003 44.1438 193.557 43.5689 192.663 43.5689H190.64V43.5603Z" fill="white"/>
<path d="M204.346 48.9056H200.19C200.19 46.9408 200.19 44.9674 200.19 43.0026H204.278V43.5603H200.772V45.6796H204.118V46.2287H200.772V48.3565H204.354V48.9056H204.346Z" fill="white"/>
<path d="M213.812 47.5414H210.448L209.85 48.9056H209.235L211.839 43.0026H212.421L215.025 48.9056H214.41L213.812 47.5414ZM210.684 47.0009H213.584L212.134 43.6461L210.684 47.0009Z" fill="white"/>
<path d="M222.308 43.0026C224.272 43.0026 225.216 44.4355 225.216 45.8941C225.216 47.387 224.339 48.9056 222.308 48.9056C221.634 48.9056 220.934 48.9056 220.26 48.9056V43.0026H222.308ZM220.841 48.3565H222.308C223.926 48.3565 224.651 47.0781 224.626 45.8855C224.601 44.7358 223.876 43.5603 222.308 43.5603H220.841V48.3565Z" fill="white"/>
<path d="M232.229 45.9541L234.1 43.0026H234.783V43.0198L232.524 46.529V48.9056H231.943V46.529L229.717 43.0198V43.0026H230.392L232.229 45.9541Z" fill="white"/>
</svg>
