<svg width="17" height="18" viewBox="0 0 17 18" fill="none" xmlns="http://www.w3.org/2000/svg">
<path fill-rule="evenodd" clip-rule="evenodd" d="M12.5409 7.70055L13.7681 6.06568C14.3761 5.25568 14.6321 4.25768 14.4891 3.25468C14.3461 2.25168 13.8221 1.36568 13.0121 0.757684C11.3411 -0.496316 8.95911 -0.159316 7.70411 1.51368L0.952097 10.5087C-1.0599 13.1917 0.730097 16.3877 0.807097 16.5227C0.911097 16.7037 1.0861 16.8327 1.2901 16.8797C1.3481 16.8937 1.9081 17.0177 2.6891 17.0177C3.9521 17.0177 5.7901 16.6947 7.01611 15.0607L12.3847 7.90865C12.4159 7.87935 12.445 7.84685 12.4716 7.81145C12.4983 7.77595 12.5214 7.73885 12.5409 7.70055ZM1.9601 15.4707C2.7411 15.5657 4.7111 15.6327 5.8161 14.1597L10.8122 7.50385L7.14751 4.7524L2.1511 11.4087C1.0241 12.9127 1.6441 14.7537 1.9601 15.4707ZM8.04771 3.55328L11.7129 6.30395L12.5681 5.16468C13.3271 4.15468 13.1221 2.71568 12.1121 1.95668C11.1011 1.19968 9.66111 1.40468 8.90311 2.41368L8.04771 3.55328Z" fill="#AAAAAA"/>
<path d="M16.2159 16.7559H9.83887C9.42487 16.7559 9.08887 16.4199 9.08887 16.0059C9.08887 15.5919 9.42487 15.2559 9.83887 15.2559H16.2159C16.6299 15.2559 16.9659 15.5919 16.9659 16.0059C16.9659 16.4199 16.6299 16.7559 16.2159 16.7559Z" fill="#AAAAAA"/>
</svg>
