<svg width="40" height="40" viewBox="0 0 40 40" fill="none" xmlns="http://www.w3.org/2000/svg">
<path d="M21.25 18.75H27.5V21.25H21.25V27.5H18.75V21.25H12.5V18.75H18.75V12.5H21.25V18.75ZM20 2.5C21.6146 2.5 23.1641 2.70833 24.6484 3.125C26.1328 3.54167 27.526 4.1276 28.8281 4.88281C30.1302 5.63802 31.3086 6.54948 32.3633 7.61719C33.418 8.6849 34.3294 9.86328 35.0977 11.1523C35.8659 12.4414 36.4583 13.8346 36.875 15.332C37.2917 16.8294 37.5 18.3854 37.5 20C37.5 21.6146 37.2917 23.1641 36.875 24.6484C36.4583 26.1328 35.8724 27.526 35.1172 28.8281C34.362 30.1302 33.4505 31.3086 32.3828 32.3633C31.3151 33.418 30.1367 34.3294 28.8477 35.0977C27.5586 35.8659 26.1654 36.4583 24.668 36.875C23.1706 37.2917 21.6146 37.5 20 37.5C18.3854 37.5 16.8359 37.2917 15.3516 36.875C13.8672 36.4583 12.474 35.8724 11.1719 35.1172C9.86979 34.362 8.69141 33.4505 7.63672 32.3828C6.58203 31.3151 5.67057 30.1367 4.90234 28.8477C4.13411 27.5586 3.54167 26.1654 3.125 24.668C2.70833 23.1706 2.5 21.6146 2.5 20C2.5 18.3854 2.70833 16.8359 3.125 15.3516C3.54167 13.8672 4.1276 12.474 4.88281 11.1719C5.63802 9.86979 6.54948 8.69141 7.61719 7.63672C8.6849 6.58203 9.86328 5.67057 11.1523 4.90234C12.4414 4.13411 13.8346 3.54167 15.332 3.125C16.8294 2.70833 18.3854 2.5 20 2.5ZM20 35C21.3802 35 22.7083 34.8242 23.9844 34.4727C25.2604 34.1211 26.4518 33.6133 27.5586 32.9492C28.6654 32.2852 29.681 31.5039 30.6055 30.6055C31.5299 29.707 32.3112 28.6979 32.9492 27.5781C33.5872 26.4583 34.0885 25.2604 34.4531 23.9844C34.8177 22.7083 35 21.3802 35 20C35 18.6198 34.8242 17.2917 34.4727 16.0156C34.1211 14.7396 33.6133 13.5482 32.9492 12.4414C32.2852 11.3346 31.5039 10.319 30.6055 9.39453C29.707 8.47005 28.6979 7.6888 27.5781 7.05078C26.4583 6.41276 25.2604 5.91146 23.9844 5.54688C22.7083 5.18229 21.3802 5 20 5C18.6198 5 17.2917 5.17578 16.0156 5.52734C14.7396 5.87891 13.5482 6.38672 12.4414 7.05078C11.3346 7.71484 10.319 8.49609 9.39453 9.39453C8.47005 10.293 7.6888 11.3021 7.05078 12.4219C6.41276 13.5417 5.91146 14.7396 5.54688 16.0156C5.18229 17.2917 5 18.6198 5 20C5 21.3802 5.17578 22.7083 5.52734 23.9844C5.87891 25.2604 6.38672 26.4518 7.05078 27.5586C7.71484 28.6654 8.49609 29.681 9.39453 30.6055C10.293 31.5299 11.3021 32.3112 12.4219 32.9492C13.5417 33.5872 14.7396 34.0885 16.0156 34.4531C17.2917 34.8177 18.6198 35 20 35Z" fill="black"/>
</svg>
