<svg width="28" height="16" viewBox="0 0 28 16" fill="none" xmlns="http://www.w3.org/2000/svg">
<path d="M3.36364 10.3333L3.95455 10.415L9.35545 5.08333C9.24709 4.69157 9.24694 4.27831 9.355 3.88646C9.46307 3.49462 9.67542 3.13847 9.97 2.855C10.8918 1.93333 12.3809 1.93333 13.3027 2.855C13.9291 3.46167 14.13 4.325 13.9173 5.08333L16.9545 8.08167L17.5455 8C17.7582 8 17.9591 8 18.1364 8.08167L22.3555 3.91667C22.2727 3.74167 22.2727 3.54333 22.2727 3.33333C22.2727 2.71449 22.5218 2.121 22.965 1.68342C23.4083 1.24583 24.0095 1 24.6364 1C25.2632 1 25.8644 1.24583 26.3077 1.68342C26.751 2.121 27 2.71449 27 3.33333C27 3.95217 26.751 4.54566 26.3077 4.98325C25.8644 5.42083 25.2632 5.66667 24.6364 5.66667C24.4236 5.66667 24.2227 5.66667 24.0455 5.585L19.8264 9.75C19.9091 9.925 19.9091 10.1233 19.9091 10.3333C19.9091 10.9522 19.6601 11.5457 19.2168 11.9832C18.7735 12.4208 18.1723 12.6667 17.5455 12.6667C16.9186 12.6667 16.3174 12.4208 15.8741 11.9832C15.4308 11.5457 15.1818 10.9522 15.1818 10.3333L15.2645 9.75L12.2273 6.75167C11.8491 6.83333 11.4236 6.83333 11.0455 6.75167L5.64455 12.0833L5.72727 12.6667C5.72727 13.2855 5.47825 13.879 5.03498 14.3166C4.59171 14.7542 3.99051 15 3.36364 15C2.73676 15 2.13556 14.7542 1.69229 14.3166C1.24903 13.879 1 13.2855 1 12.6667C1 12.0478 1.24903 11.4543 1.69229 11.0168C2.13556 10.5792 2.73676 10.3333 3.36364 10.3333Z" fill="#fff" stroke="#fff"/>
</svg>
