<svg width="17" height="19" viewBox="0 0 17 19" fill="none" xmlns="http://www.w3.org/2000/svg">
<path d="M10.0685 13.6634C10.0492 13.232 10.0947 12.8118 10.271 12.4117C10.4287 12.0537 10.6578 11.751 10.9578 11.501C11.829 10.7752 12.26 9.84426 12.2465 8.70989C12.2267 7.0373 10.8499 5.56445 9.18771 5.39335C7.63622 5.23366 6.17893 6.13851 5.60773 7.56829C5.08003 8.88937 5.46191 10.4868 6.55128 11.4035C7.02037 11.7983 7.36086 12.2655 7.49412 12.8707C7.58436 13.2809 7.55947 13.6976 7.54087 14.111C7.52877 14.3827 7.2869 14.5717 7.01525 14.5685C6.7464 14.5652 6.5243 14.3659 6.50639 14.0913C6.4922 13.875 6.49848 13.6571 6.49964 13.4399C6.50197 12.9757 6.31708 12.6019 5.97101 12.2974C4.50116 11.004 3.96927 9.39289 4.52767 7.51824C5.03514 5.81447 6.23358 4.75225 7.98089 4.40912C10.1426 3.98452 12.2316 5.15148 12.9968 7.21608C13.627 8.9166 13.3093 10.4812 12.1128 11.8528C11.9683 12.0183 11.7997 12.1645 11.6334 12.309C11.2969 12.6012 11.1241 12.9653 11.1204 13.4106C11.1185 13.6431 11.1274 13.8766 11.1108 14.1082C11.0925 14.3641 10.8771 14.5547 10.6213 14.568C10.3661 14.581 10.138 14.412 10.0859 14.1618C10.068 14.0757 10.0717 13.9849 10.0689 13.8959C10.0664 13.8187 10.0685 13.7409 10.0685 13.6634Z" fill="#8C8C8C" stroke="white" stroke-width="0.5"/>
<path d="M8.28577 15.4346C8.28577 15.3634 8.28577 15.3096 8.28577 15.2556C8.28577 13.6302 8.28507 12.0049 8.28716 10.3798C8.28716 10.2956 8.26437 10.2355 8.2039 10.1761C7.8804 9.85838 7.56014 9.53713 7.24082 9.21518C7.0429 9.01545 7.01337 8.74681 7.15966 8.52474C7.28873 8.32896 7.55131 8.24166 7.77574 8.33268C7.85574 8.36504 7.93272 8.41905 7.99482 8.47957C8.26623 8.74472 8.5316 9.01592 8.81394 9.29992C9.08698 9.02244 9.35048 8.75031 9.6198 8.48423C9.68166 8.42301 9.75771 8.3676 9.83748 8.33501C10.0687 8.2405 10.3317 8.3278 10.4622 8.52939C10.6019 8.74495 10.5766 9.01126 10.3908 9.20215C10.1908 9.4077 9.98563 9.60836 9.78283 9.81136C9.65678 9.93753 9.527 10.0602 9.40676 10.1917C9.36909 10.2329 9.33699 10.2977 9.33699 10.3517C9.33327 12.0079 9.33467 13.6642 9.33211 15.3205C9.33187 15.4157 9.36676 15.4378 9.45421 15.4367C9.76027 15.4327 10.0666 15.4297 10.3726 15.4367C10.8038 15.4465 11.0508 15.876 10.8354 16.2365C10.7282 16.4163 10.5617 16.4889 10.3561 16.4884C9.71678 16.4866 9.07721 16.4873 8.43787 16.4873C8.03087 16.4873 7.6241 16.4903 7.2171 16.4863C6.98895 16.4842 6.80708 16.3453 6.73498 16.1325C6.66474 15.9258 6.72289 15.6788 6.90429 15.5596C7.00825 15.4912 7.145 15.4481 7.26966 15.4409C7.56317 15.4239 7.8583 15.4353 8.15297 15.4351C8.19111 15.4346 8.22948 15.4346 8.28577 15.4346Z" fill="#8C8C8C" stroke="white" stroke-width="0.5"/>
<path d="M8.80979 18.4097C8.5735 18.4097 8.33697 18.4104 8.10068 18.4097C7.78206 18.4085 7.55088 18.1911 7.54693 17.8903C7.54297 17.5905 7.77112 17.3621 8.08882 17.3593C8.56931 17.3551 9.05003 17.3554 9.53053 17.3589C9.84636 17.3612 10.0754 17.59 10.0724 17.8901C10.0692 18.1911 9.83869 18.4083 9.51913 18.4097C9.28261 18.4104 9.04608 18.4094 8.80979 18.4097Z" fill="#8C8C8C" stroke="white" stroke-width="0.5"/>
<path d="M9.33413 2.21524C9.33413 2.43639 9.33576 2.65754 9.33367 2.87846C9.33088 3.19272 9.12831 3.41457 8.8355 3.4283C8.53827 3.44227 8.29733 3.23509 8.28756 2.91873C8.27291 2.44989 8.27244 1.97989 8.28733 1.51106C8.29733 1.19633 8.54316 0.985423 8.8362 1.00079C9.12691 1.01615 9.33111 1.24196 9.33437 1.5518C9.33437 1.55948 9.33437 1.56739 9.33437 1.57508C9.33413 1.78854 9.33413 2.00178 9.33413 2.21524Z" fill="#8C8C8C" stroke="white" stroke-width="0.5"/>
<path d="M4.674 12.4726C4.84052 12.4821 5.00262 12.5666 5.09728 12.7533C5.20031 12.9566 5.18217 13.1584 5.03565 13.3295C4.88727 13.5027 4.71982 13.6593 4.55911 13.8218C4.39561 13.9869 4.23025 14.1503 4.06513 14.3139C3.8293 14.5479 3.50835 14.5584 3.28741 14.34C3.07554 14.1307 3.08531 13.8034 3.31439 13.5718C3.62231 13.2606 3.9328 12.9521 4.24188 12.6421C4.35073 12.5327 4.48004 12.4719 4.674 12.4726Z" fill="#8C8C8C" stroke="white" stroke-width="0.5"/>
<path d="M13.9839 3.1374C14.1844 3.14764 14.3505 3.24588 14.4391 3.4512C14.5293 3.66024 14.494 3.85951 14.3402 4.02316C14.1149 4.26317 13.8781 4.49223 13.646 4.72548C13.5558 4.81604 13.4658 4.90683 13.3739 4.99552C13.149 5.21294 12.8199 5.2169 12.6115 5.00599C12.4076 4.79974 12.4101 4.47198 12.6253 4.25269C12.9399 3.93191 13.2593 3.61555 13.5772 3.29826C13.6835 3.19187 13.813 3.1388 13.9839 3.1374Z" fill="#8C8C8C" stroke="white" stroke-width="0.5"/>
<path d="M3.13062 3.72263C3.1469 3.44375 3.23783 3.27381 3.44482 3.18442C3.65297 3.09457 3.85554 3.12157 4.01741 3.27731C4.35534 3.60228 4.68536 3.9354 5.01165 4.27224C5.21236 4.47942 5.20701 4.79532 5.01468 4.99901C4.82304 5.202 4.50046 5.2283 4.29091 5.0302C3.93903 4.69778 3.59739 4.35395 3.26458 4.00244C3.1855 3.91887 3.15945 3.78571 3.13062 3.72263Z" fill="#8C8C8C" stroke="white" stroke-width="0.5"/>
<path d="M14.484 13.995C14.4733 14.181 14.3868 14.3445 14.1935 14.439C13.9977 14.5349 13.8081 14.5139 13.6367 14.3829C13.5542 14.3198 13.4837 14.2406 13.4098 14.1668C13.1488 13.9073 12.8872 13.6484 12.629 13.3861C12.4102 13.164 12.406 12.8274 12.6146 12.6239C12.8281 12.4158 13.1535 12.4205 13.3758 12.6404C13.6926 12.9538 14.0065 13.2699 14.321 13.5856C14.4268 13.692 14.4835 13.82 14.484 13.995Z" fill="#8C8C8C" stroke="white" stroke-width="0.5"/>
<path d="M15.4056 9.33792C15.1619 9.33792 14.9179 9.34584 14.6746 9.3356C14.4476 9.32605 14.2667 9.17008 14.2109 8.96011C14.1516 8.7378 14.2237 8.5085 14.4162 8.38978C14.5072 8.33367 14.6242 8.2955 14.7302 8.29294C15.1788 8.28246 15.6277 8.28712 16.0763 8.28921C16.3824 8.29061 16.615 8.51525 16.6201 8.80856C16.6252 9.10607 16.3929 9.33513 16.0787 9.34072C15.9666 9.34281 15.8542 9.34118 15.7421 9.34118C15.63 9.34118 15.5177 9.34118 15.4056 9.34118C15.4056 9.34002 15.4056 9.33909 15.4056 9.33792Z" fill="#8C8C8C" stroke="white" stroke-width="0.5"/>
<path d="M2.20685 9.34018C1.98218 9.34018 1.75729 9.34158 1.53262 9.33995C1.23516 9.33785 1.00329 9.11088 1.00003 8.82176C0.996779 8.53264 1.22377 8.29356 1.52006 8.28984C1.98125 8.28425 2.44244 8.28518 2.90363 8.28961C3.20016 8.2924 3.43227 8.52938 3.4318 8.81548C3.43134 9.10553 3.20551 9.33366 2.90456 9.34018C2.67222 9.34507 2.43942 9.34111 2.20708 9.34111C2.20685 9.34088 2.20685 9.34065 2.20685 9.34018Z" fill="#8C8C8C" stroke="white" stroke-width="0.5"/>
</svg>
