<svg width="12" height="16" viewBox="0 0 12 16" fill="none" xmlns="http://www.w3.org/2000/svg">
<path fill-rule="evenodd" clip-rule="evenodd" d="M6.06713 15.2601C3.33403 15.2601 1 14.8348 1 13.1316C1 11.4282 3.31923 9.85579 6.06713 9.85579C8.80032 9.85579 11.1343 11.413 11.1343 13.1163C11.1343 14.8189 8.81512 15.2601 6.06713 15.2601Z" stroke="#787878" stroke-width="0.5" stroke-linecap="round" stroke-linejoin="round"/>
<path fill-rule="evenodd" clip-rule="evenodd" d="M6.06169 7.49534C7.85534 7.49534 9.30904 6.04159 9.30904 4.248C9.30904 2.4544 7.85534 1 6.06169 1C4.26813 1 2.81374 2.4544 2.81374 4.248C2.80768 6.03553 4.25131 7.48927 6.03882 7.49534C6.04688 7.49534 6.05429 7.49534 6.06169 7.49534Z" stroke="#787878" stroke-width="0.5" stroke-linecap="round" stroke-linejoin="round"/>
</svg>
