<svg width="14" height="14" viewBox="0 0 14 14" fill="none" xmlns="http://www.w3.org/2000/svg">
<path d="M6.43577 13.5247C5.95138 12.7794 5.4736 12.0451 4.98811 11.2976C4.89233 11.3273 4.80316 11.3383 4.7316 11.3791C4.54225 11.4881 4.38372 11.4881 4.24721 11.2976C4.11841 11.1171 3.94117 11.138 3.77383 11.2117C3.38962 11.3813 3.08138 11.3108 2.84028 10.9607C2.79735 10.898 2.739 10.8418 2.67735 10.7978C2.26452 10.5028 2.09498 10.1461 2.33277 9.64738C2.3713 9.56702 2.33167 9.38427 2.26452 9.32923C2.03884 9.14538 2.03664 8.95603 2.16764 8.72815C2.19406 8.68191 2.20397 8.62576 2.23369 8.53879C1.50051 8.06211 0.766216 7.58323 0 7.08453C0.0704566 6.95132 0.121097 6.82031 0.19926 6.70912C0.740895 5.94181 1.50161 5.53998 2.41754 5.4376C2.77533 5.39797 3.14853 5.39467 3.50191 5.45191C3.78704 5.49815 3.90153 5.39357 4.05236 5.1844C4.66114 4.33672 5.24682 3.46592 5.92716 2.67769C7.81518 0.493532 10.2679 -0.228648 13.0807 0.0608841C13.3383 0.0873053 13.4363 0.188587 13.4627 0.443992C13.7743 3.42409 12.909 5.94511 10.5454 7.86395C9.8386 8.43751 9.0823 8.95383 8.33259 9.47234C8.11682 9.62206 8.03095 9.74426 8.06838 10.0239C8.19608 10.9662 8.07168 11.869 7.49042 12.6616C7.2207 13.0293 6.89594 13.332 6.43577 13.5247ZM12.0767 0.396654C9.72411 0.425277 7.78215 1.18379 6.25523 2.91107C4.70848 4.65928 3.56136 6.65188 2.60139 8.76447C2.52103 8.94172 2.57827 9.0463 2.69827 9.1663C3.24651 9.70683 3.79805 10.2452 4.32978 10.8011C4.50152 10.9806 4.64353 10.9773 4.84829 10.8826C6.61411 10.0745 8.29627 9.12667 9.8287 7.9256C10.9582 7.04049 11.9446 6.03758 12.5049 4.68019C13.0224 3.42409 13.1996 2.12064 13.0895 0.770954C13.0708 0.539769 12.9838 0.435185 12.7504 0.431882C12.4972 0.428579 12.2451 0.405461 12.0767 0.396654ZM7.61372 9.93912C6.85851 10.3365 6.12422 10.7218 5.36901 11.1182C5.77964 11.7512 6.17266 12.3556 6.56347 12.9577C7.44528 12.4734 7.93628 11.0543 7.61372 9.93912ZM3.58008 5.90658C2.45827 5.59393 1.00841 6.10364 0.568056 6.96673C1.17574 7.35975 1.78563 7.75386 2.40323 8.15348C2.80946 7.37956 3.18926 6.65298 3.58008 5.90658ZM3.63732 10.7923C3.33678 10.4841 3.04064 10.1791 2.739 9.86866C2.62781 10.0338 2.62561 10.1791 2.78744 10.3233C2.93496 10.4543 3.07257 10.5963 3.20357 10.7428C3.34999 10.9068 3.49531 10.898 3.63732 10.7923Z" fill="#787878"/>
<path d="M0.234375 12.3688C0.246485 11.5706 0.714361 10.9938 1.48498 10.8485C1.58076 10.8308 1.68864 10.8143 1.77671 10.8429C1.84277 10.8639 1.91432 10.9519 1.92864 11.0202C1.93854 11.0708 1.87029 11.1622 1.81414 11.1941C1.74149 11.2349 1.64461 11.2316 1.55984 11.2503C0.899309 11.3956 0.549228 11.9449 0.67583 12.6099C0.706654 12.7695 0.779313 12.8234 0.932336 12.8466C1.62369 12.9544 2.129 12.6198 2.27541 11.9416C2.30954 11.7853 2.28973 11.5585 2.52421 11.5938C2.77632 11.6312 2.70366 11.8602 2.67504 12.0253C2.54733 12.7695 1.98918 13.2528 1.23288 13.2715C1.03692 13.2759 0.839861 13.2363 0.642803 13.2198C0.438039 13.2032 0.323547 13.1031 0.304832 12.8906C0.289419 12.7156 0.258594 12.5427 0.234375 12.3688Z" fill="#787878"/>
<path d="M7.44976 4.07575C7.47508 2.96165 8.3778 2.10186 9.4886 2.13379C10.5554 2.16461 11.4206 3.08055 11.3909 4.1462C11.3601 5.24048 10.4552 6.10138 9.3675 6.07165C8.29084 6.04303 7.42444 5.1414 7.44976 4.07575ZM10.9737 4.14841C11.0067 3.30183 10.3308 2.57855 9.47319 2.54332C8.6156 2.50809 7.88901 3.19724 7.86039 4.07355C7.83287 4.91022 8.51872 5.62689 9.38181 5.66102C10.2207 5.69405 10.9407 5.0104 10.9737 4.14841Z" fill="#787878"/>
<path d="M5.99985 7.3091C6.0571 7.38066 6.13086 7.47204 6.19691 7.5546C5.48133 8.26467 4.77347 8.96594 4.02927 9.70353C3.96432 9.63748 3.88285 9.55491 3.80469 9.47675C4.54889 8.74246 5.25785 8.04229 5.99985 7.3091Z" fill="#787878"/>
</svg>
