<svg width="18" height="17" viewBox="0 0 18 17" fill="none" xmlns="http://www.w3.org/2000/svg">
<path fill-rule="evenodd" clip-rule="evenodd" d="M0 6.4C0 4.16 1.19209e-07 3.04 0.436 2.184C0.819488 1.43139 1.43139 0.819488 2.184 0.436C3.04 -1.19209e-07 4.16 0 6.4 0H11.6C13.84 0 14.96 -1.19209e-07 15.816 0.436C16.5686 0.819488 17.1805 1.43139 17.564 2.184C18 3.04 18 4.16 18 6.4V7.6C18 9.84 18 10.96 17.564 11.816C17.1805 12.5686 16.5686 13.1805 15.816 13.564C14.96 14 13.84 14 11.6 14H4.414C4.14881 14.0001 3.89449 14.1054 3.707 14.293L1.707 16.293C1.077 16.923 0 16.477 0 15.586V6.4ZM6 4C5.73478 4 5.48043 4.10536 5.29289 4.29289C5.10536 4.48043 5 4.73478 5 5C5 5.26522 5.10536 5.51957 5.29289 5.70711C5.48043 5.89464 5.73478 6 6 6H12C12.2652 6 12.5196 5.89464 12.7071 5.70711C12.8946 5.51957 13 5.26522 13 5C13 4.73478 12.8946 4.48043 12.7071 4.29289C12.5196 4.10536 12.2652 4 12 4H6ZM6 8C5.73478 8 5.48043 8.10536 5.29289 8.29289C5.10536 8.48043 5 8.73478 5 9C5 9.26522 5.10536 9.51957 5.29289 9.70711C5.48043 9.89464 5.73478 10 6 10H9C9.26522 10 9.51957 9.89464 9.70711 9.70711C9.89464 9.51957 10 9.26522 10 9C10 8.73478 9.89464 8.48043 9.70711 8.29289C9.51957 8.10536 9.26522 8 9 8H6Z" fill="#FCEC0C"/>
</svg>
