<svg width="282" height="58" viewBox="0 0 282 58" fill="none" xmlns="http://www.w3.org/2000/svg">
<g clip-path="url(#clip0_29_16)">
<path d="M181.58 32.58C181.58 35.15 181.58 37.74 181.58 40.59C175.16 40.48 169.93 37.99 166.09 32.99C161.15 26.56 160.32 19.41 163.87 12.11C167.36 4.96001 173.39 1.37001 181.51 0.890015C181.51 3.62001 181.51 6.26001 181.51 9.06001C177.71 9.39001 174.45 10.87 172.18 14.14C170.7 16.27 170.02 18.64 170.14 21.23C170.42 27.28 173.84 30.68 181.58 32.58Z" fill="#1736E5"/>
<path d="M199.48 34.96C196.82 34.96 194.27 34.96 191.51 34.96C191.51 31.85 191.51 28.75 191.51 25.51C188.27 25.51 185.22 25.51 182.03 25.51C182.03 22.72 182.03 20.09 182.03 17.34C187.79 17.34 193.56 17.34 199.47 17.34C199.48 23.13 199.48 28.95 199.48 34.96Z" fill="#EF442E"/>
<path d="M38.6099 35.3C34.5799 39.27 29.3799 41.06 23.5599 41.06C8.61992 41.06 2.68992 31.44 2.62992 20.75C2.57992 10.63 9.17992 0 23.5599 0C28.9299 0 33.9099 2.07 37.9399 6.04L32.4599 11.47C30.1099 9.18 26.6999 8.22 23.5599 8.22C14.6599 8.22 11.1899 15.1 11.2499 20.81C11.3099 26.52 14.3799 33.01 23.5599 33.01C26.6899 33.01 30.8299 31.61 33.1799 29.26L38.6099 35.3Z" fill="#1736E5"/>
<path d="M68.0398 40.12V24.62H50.5198V40.12H41.7998V0.950012H50.5298V16.62H68.0398V0.950012H76.6598V40.12H68.0398Z" fill="#1736E5"/>
<path d="M111.12 33.35H91.03L88.18 40.06H78.78L96.35 0.900024H105.86L123.43 40.07H113.97L111.12 33.35ZM101.1 9.74002L94.33 25.63H107.81L101.1 9.74002Z" fill="#1736E5"/>
<path d="M160.3 40.06H150.62L140.6 27.19H134.28V40.06H125.55V0.900024C131.93 0.900024 137.8 0.900024 144.13 0.900024C153.59 0.900024 158.62 7.22003 158.62 14.1C158.56 19.19 157.05 23.72 149.56 26.41L160.3 39.39V40.06ZM134.28 8.39002V19.8H144.24C148.27 19.8 150 16.78 150 14.32C149.94 11.63 148.21 8.39002 144.13 8.39002H134.28Z" fill="#1736E5"/>
<path d="M235.96 40.83H206.14C206.14 27.79 206.14 14.7 206.14 1.65997H235.18V9.65997H214.7V17.21H234V24.88H214.7V32.77H235.96V40.83Z" fill="#1736E5"/>
<path d="M275.57 40.83H265.89L255.88 27.96H249.56V40.83H240.83V1.65997C247.21 1.65997 253.08 1.65997 259.41 1.65997C268.87 1.65997 273.9 7.97997 273.9 14.86C273.84 19.95 272.33 24.48 264.84 27.17L275.58 40.15V40.83H275.57ZM249.55 9.15997V20.57H259.51C263.54 20.57 265.27 17.55 265.27 15.09C265.21 12.4 263.48 9.15997 259.39 9.15997H249.55Z" fill="#1736E5"/>
<path d="M7.93994 57V50.12H12.6499V50.77H8.62994V53.38H12.4999V54.03H8.62994V57H7.93994Z" fill="#1736E5"/>
<path d="M24.5398 50.12V54.32C24.5398 56.18 23.3198 57.07 21.8298 57.07C20.3398 57.07 19.0798 56.18 19.0798 54.32V50.12H19.7698V54.32C19.7698 55.63 20.6598 56.43 21.8298 56.43C22.8698 56.43 23.8498 55.75 23.8498 54.32V50.12H24.5398Z" fill="#1736E5"/>
<path d="M32.1099 50.12V56.35H35.9299V57H31.4199V50.12H32.1099Z" fill="#1736E5"/>
<path d="M42.7899 50.12V56.35H46.6099V57H42.0999V50.12H42.7899Z" fill="#1736E5"/>
<path d="M54.02 53.56L56.24 50.12H57.05V50.14L54.37 54.23V57H53.68V54.23L51.04 50.14V50.12H51.84L54.02 53.56Z" fill="#1736E5"/>
<path d="M76.06 56.06C75.36 56.76 74.48 57.1 73.55 57.1C71.17 57.1 69.98 55.51 69.97 53.59C69.96 51.71 71.16 50.01 73.55 50.01C74.46 50.01 75.39 50.33 75.99 51.04L75.57 51.46C75.01 50.91 74.29 50.63 73.55 50.63C71.63 50.63 70.66 52.05 70.66 53.57C70.66 55.18 71.63 56.45 73.55 56.45C74.29 56.45 75.06 56.15 75.61 55.6L76.06 56.06Z" fill="#1736E5"/>
<path d="M87.2799 57V53.95H83.1099V57H82.4199V50.12H83.1099V53.3H87.2799V50.12H87.9699V57H87.2799Z" fill="#1736E5"/>
<path d="M99.6099 55.41H95.6199L94.9099 57H94.1799L97.2699 50.12H97.9599L101.05 57H100.32L99.6099 55.41ZM95.8899 54.78H99.3299L97.6099 50.87L95.8899 54.78Z" fill="#1736E5"/>
<path d="M112.89 57H112L109.72 54.46H107.94V57H107.25V50.12C108.28 50.12 109.31 50.12 110.34 50.12C111.87 50.12 112.61 51.14 112.62 52.3C112.63 53.37 112 54.35 110.55 54.41L112.89 57ZM107.94 50.77V53.82H110.3C111.4 53.82 111.93 53.17 111.93 52.31C111.93 51.45 111.4 50.78 110.34 50.78H107.94V50.77Z" fill="#1736E5"/>
<path d="M124.51 51.47C123.95 50.91 123.13 50.64 122.4 50.64C120.52 50.64 119.51 52.04 119.52 53.58C119.52 55.08 120.47 56.42 122.4 56.42C123.09 56.42 123.81 56.18 124.38 55.67V53.93H122.13V53.3H125.04V55.96C124.33 56.69 123.48 57.09 122.41 57.09C120.01 57.09 118.84 55.45 118.84 53.59C118.83 51.49 120.24 49.99 122.41 49.99C123.32 49.99 124.24 50.33 124.94 51.02L124.51 51.47Z" fill="#1736E5"/>
<path d="M136.59 57H131.66C131.66 54.71 131.66 52.41 131.66 50.12H136.51V50.77H132.35V53.24H136.32V53.88H132.35V56.36H136.6V57H136.59Z" fill="#1736E5"/>
<path d="M145.57 50.12C147.9 50.12 149.02 51.79 149.02 53.49C149.02 55.23 147.98 57 145.57 57C144.77 57 143.94 57 143.14 57V50.12H145.57ZM143.83 56.36H145.57C147.49 56.36 148.35 54.87 148.32 53.48C148.29 52.14 147.43 50.77 145.57 50.77H143.83V56.36Z" fill="#1736E5"/>
<path d="M163.02 57V50.12H167.73V50.77H163.71V53.38H167.58V54.03H163.71V57H163.02Z" fill="#1736E5"/>
<path d="M179.62 50.12V54.32C179.62 56.18 178.4 57.07 176.91 57.07C175.42 57.07 174.16 56.18 174.16 54.32V50.12H174.85V54.32C174.85 55.63 175.74 56.43 176.91 56.43C177.95 56.43 178.93 55.75 178.93 54.32V50.12H179.62Z" fill="#1736E5"/>
<path d="M187.19 50.12V56.35H191.01V57H186.5V50.12H187.19Z" fill="#1736E5"/>
<path d="M197.87 50.12V56.35H201.69V57H197.18V50.12H197.87Z" fill="#1736E5"/>
<path d="M209.1 53.56L211.32 50.12H212.13V50.14L209.45 54.23V57H208.76V54.23L206.12 50.14V50.12H206.92L209.1 53.56Z" fill="#1736E5"/>
<path d="M231.13 57H230.24L227.96 54.46H226.18V57H225.49V50.12C226.52 50.12 227.55 50.12 228.58 50.12C230.11 50.12 230.85 51.14 230.86 52.3C230.87 53.37 230.24 54.35 228.79 54.41L231.13 57ZM226.17 50.77V53.82H228.53C229.63 53.82 230.16 53.17 230.16 52.31C230.16 51.45 229.63 50.78 228.57 50.78H226.17V50.77Z" fill="#1736E5"/>
<path d="M242.43 57H237.5C237.5 54.71 237.5 52.41 237.5 50.12H242.35V50.77H238.19V53.24H242.16V53.88H238.19V56.36H242.44V57H242.43Z" fill="#1736E5"/>
<path d="M253.66 55.41H249.67L248.96 57H248.23L251.32 50.12H252.01L255.1 57H254.37L253.66 55.41ZM249.95 54.78H253.39L251.67 50.87L249.95 54.78Z" fill="#1736E5"/>
<path d="M263.74 50.12C266.07 50.12 267.19 51.79 267.19 53.49C267.19 55.23 266.15 57 263.74 57C262.94 57 262.11 57 261.31 57V50.12H263.74ZM262 56.36H263.74C265.66 56.36 266.52 54.87 266.49 53.48C266.46 52.14 265.6 50.77 263.74 50.77H262V56.36Z" fill="#1736E5"/>
<path d="M275.51 53.56L277.73 50.12H278.54V50.14L275.86 54.23V57H275.17V54.23L272.53 50.14V50.12H273.33L275.51 53.56Z" fill="#1736E5"/>
</g>
<defs>
<clipPath id="clip0_29_16">
<rect width="281.17" height="57.11" fill="white"/>
</clipPath>
</defs>
</svg>
