<?xml version="1.0" standalone="no"?>
<!DOCTYPE svg PUBLIC "-//W3C//DTD SVG 20010904//EN"
 "http://www.w3.org/TR/2001/REC-SVG-20010904/DTD/svg10.dtd">
<svg version="1.0" xmlns="http://www.w3.org/2000/svg"
 width="512.000000pt" height="512.000000pt" viewBox="0 0 512.000000 512.000000"
 preserveAspectRatio="xMidYMid meet">

<g transform="translate(0.000000,512.000000) scale(0.100000,-0.100000)"
fill="#000000" stroke="none">
<path d="M3885 4786 c-16 -7 -37 -22 -46 -32 -15 -19 -229 -386 -264 -453 -27
-53 -16 -115 29 -160 34 -33 41 -36 96 -36 53 0 63 3 89 30 17 17 87 129 157
250 141 244 154 281 115 342 -39 61 -115 87 -176 59z"/>
<path d="M2573 4650 c-170 -35 -286 -205 -252 -370 7 -30 12 -68 12 -83 0 -46
-154 -340 -265 -507 -216 -325 -504 -644 -816 -903 -49 -41 -71 -65 -67 -75
10 -26 617 -1076 630 -1090 10 -11 40 -4 171 41 499 171 963 249 1399 234 248
-9 298 -17 331 -56 14 -17 55 -45 92 -63 58 -29 76 -33 142 -32 90 0 147 23
214 84 68 63 100 135 100 229 0 50 -6 89 -17 115 -10 22 -124 223 -254 448
-129 225 -234 410 -232 411 2 2 30 19 61 40 138 89 199 264 149 426 -68 219
-317 324 -525 222 -37 -18 -69 -31 -70 -29 -2 1 -108 185 -236 408 -128 223
-248 424 -267 447 -62 77 -198 124 -300 103z"/>
<path d="M4618 4126 c-202 -108 -404 -233 -425 -265 -61 -90 7 -211 117 -211
37 0 75 18 254 121 210 119 270 165 282 214 15 62 -22 136 -82 161 -50 21 -76
17 -146 -20z"/>
<path d="M4323 3150 c-41 -25 -63 -68 -63 -124 0 -36 6 -52 31 -81 17 -19 47
-40 67 -46 24 -7 131 -9 303 -7 l266 3 36 28 c59 45 74 140 29 192 -46 55 -45
55 -352 55 -265 0 -287 -1 -317 -20z"/>
<path d="M875 2598 c-55 -32 -188 -109 -295 -170 -167 -96 -207 -124 -276
-193 -67 -66 -89 -97 -128 -175 -199 -405 25 -879 462 -976 108 -24 261 -16
366 20 67 23 344 174 607 332 l57 34 -339 587 c-186 322 -342 589 -346 593 -4
4 -53 -20 -108 -52z"/>
<path d="M1575 1184 c-110 -63 -204 -119 -208 -123 -9 -9 498 -672 541 -708
34 -29 82 -38 124 -24 20 7 80 54 141 112 113 107 130 136 111 201 -10 33
-483 657 -499 657 -5 1 -100 -51 -210 -115z"/>
</g>
</svg>
