<?xml version="1.0" standalone="no"?>
<!DOCTYPE svg PUBLIC "-//W3C//DTD SVG 20010904//EN"
 "http://www.w3.org/TR/2001/REC-SVG-20010904/DTD/svg10.dtd">
<svg version="1.0" xmlns="http://www.w3.org/2000/svg"
 width="512.000000pt" height="512.000000pt" viewBox="0 0 512.000000 512.000000"
 preserveAspectRatio="xMidYMid meet">

<g transform="translate(0.000000,512.000000) scale(0.100000,-0.100000)"
fill="#000000" stroke="none">
<path d="M1260 5093 c-38 -13 -112 -82 -483 -452 -329 -328 -444 -448 -462
-485 l-25 -50 0 -1951 0 -1951 26 -52 c14 -29 42 -65 62 -82 78 -64 -39 -60
1797 -58 1624 3 1671 4 1709 22 47 24 98 75 123 124 15 31 18 67 21 225 l3
187 265 0 265 0 24 25 c24 23 25 29 25 160 l0 135 84 0 c70 0 88 3 110 21 l27
22 -3 196 c-3 196 -3 196 -33 249 -43 79 -113 138 -192 162 -52 16 -93 20
-204 20 -105 0 -139 3 -139 13 0 6 23 207 50 445 28 238 50 452 50 476 0 147
-130 308 -279 347 l-51 13 -2 1035 c-3 1002 -4 1037 -22 1075 -25 50 -72 97
-122 122 -38 18 -75 19 -1309 21 -1125 1 -1275 0 -1315 -14z m2586 -176 l24
-28 0 -1018 0 -1017 -54 -18 c-144 -45 -266 -200 -266 -337 0 -21 22 -234 50
-473 27 -239 50 -441 50 -449 0 -13 -26 -16 -158 -19 -155 -3 -159 -4 -224
-36 -80 -39 -139 -102 -168 -178 -17 -47 -20 -78 -20 -230 0 -172 0 -175 25
-199 22 -23 32 -25 109 -25 l84 0 4 -141 c4 -194 -21 -179 309 -179 l259 0 0
-166 c0 -94 -4 -174 -10 -185 -28 -52 60 -49 -1710 -49 l-1642 0 -29 29 -29
29 0 1906 0 1906 365 0 366 0 49 25 c27 14 61 41 76 60 51 68 53 83 54 468 l0
357 1231 -2 1231 -3 24 -28z m-2664 -687 l-19 -25 -299 -3 -299 -2 315 315
315 315 3 -287 c2 -268 1 -290 -16 -313z m2851 -1544 c82 -30 136 -84 158
-158 6 -23 -5 -155 -41 -467 -28 -240 -52 -451 -55 -468 l-6 -33 -134 0 -134
0 -6 33 c-3 17 -27 228 -55 467 -55 485 -55 482 7 551 71 79 174 107 266 75z
m547 -1311 c61 -31 70 -56 70 -186 l0 -119 -705 0 -705 0 0 93 c1 127 32 191
110 220 8 3 282 6 608 6 505 1 597 -1 622 -14z m-140 -565 l0 -80 -485 0 -485
0 0 80 0 80 485 0 485 0 0 -80z"/>
<path d="M826 3819 c-20 -16 -26 -29 -26 -59 0 -30 6 -43 26 -59 l27 -21 1309
0 1309 0 24 25 c33 32 33 78 0 110 l-24 25 -1309 0 -1309 0 -27 -21z"/>
<path d="M822 3207 c-32 -34 -30 -89 4 -116 l27 -21 1314 2 1315 3 19 24 c28
35 25 85 -7 110 l-27 21 -1312 0 -1312 0 -21 -23z"/>
<path d="M827 2608 c-45 -35 -34 -118 18 -138 17 -6 487 -10 1316 -10 1374 0
1335 -1 1353 45 13 34 6 72 -17 93 l-23 22 -1315 0 c-1037 0 -1319 -3 -1332
-12z"/>
<path d="M842 2010 c-50 -21 -58 -115 -12 -140 12 -6 495 -10 1333 -10 l1314
0 21 23 c40 43 25 107 -29 126 -40 14 -2592 14 -2627 1z"/>
<path d="M2385 1201 c-30 -13 -42 -29 -165 -226 -62 -99 -118 -188 -124 -197
-11 -15 -30 4 -145 142 -122 145 -149 169 -191 170 -8 0 -69 -56 -135 -126
l-120 -126 -70 89 c-95 119 -99 123 -142 123 -33 0 -47 -11 -164 -126 -70 -70
-133 -139 -139 -154 -22 -54 30 -118 88 -106 17 4 62 41 117 96 69 70 92 87
102 78 8 -6 46 -51 85 -100 39 -49 82 -94 95 -99 40 -15 75 10 184 129 56 61
105 112 108 112 4 0 68 -74 144 -164 196 -234 185 -236 374 65 76 120 140 219
143 219 3 0 55 -41 115 -91 127 -104 147 -115 187 -98 61 25 65 88 11 141 -63
59 -272 229 -301 244 -31 16 -30 16 -57 5z"/>
</g>
</svg>
