<svg width="21" height="22" viewBox="0 0 21 22" fill="none" xmlns="http://www.w3.org/2000/svg">
<path fill-rule="evenodd" clip-rule="evenodd" d="M6.636 0.602995C6.74131 0.77157 6.7754 0.975056 6.73077 1.16875C6.68615 1.36244 6.56646 1.53049 6.398 1.63599L2.398 4.136C2.22932 4.24155 2.02562 4.27578 1.83171 4.23114C1.6378 4.18651 1.46956 4.06667 1.364 3.89799C1.25844 3.72932 1.22422 3.52562 1.26885 3.3317C1.31349 3.13779 1.43332 2.96955 1.602 2.864L5.602 0.363995C5.68557 0.311739 5.77862 0.276467 5.87583 0.260197C5.97304 0.243927 6.07251 0.246978 6.16854 0.269175C6.26457 0.291371 6.35528 0.332279 6.43549 0.389558C6.51571 0.446838 6.58384 0.519366 6.636 0.602995ZM14.364 0.602995C14.4162 0.519366 14.4843 0.446838 14.5645 0.389558C14.6447 0.332279 14.7354 0.291371 14.8315 0.269175C14.9275 0.246978 15.027 0.243927 15.1242 0.260197C15.2214 0.276467 15.3144 0.311739 15.398 0.363995L19.398 2.864C19.5667 2.96955 19.6865 3.13779 19.7311 3.3317C19.7758 3.52562 19.7416 3.72932 19.636 3.89799C19.5304 4.06667 19.3622 4.18651 19.1683 4.23114C18.9744 4.27578 18.7707 4.24155 18.602 4.136L14.602 1.63599C14.4335 1.53049 14.3139 1.36244 14.2692 1.16875C14.2246 0.975056 14.2587 0.77157 14.364 0.602995ZM10.5 3.74999C8.31196 3.74999 6.21354 4.61919 4.66637 6.16636C3.11919 7.71354 2.25 9.81196 2.25 12C2.25 14.188 3.11919 16.2865 4.66637 17.8336C6.21354 19.3808 8.31196 20.25 10.5 20.25C12.688 20.25 14.7865 19.3808 16.3336 17.8336C17.8808 16.2865 18.75 14.188 18.75 12C18.75 9.81196 17.8808 7.71354 16.3336 6.16636C14.7865 4.61919 12.688 3.74999 10.5 3.74999ZM0.75 12C0.75 6.615 5.115 2.24999 10.5 2.24999C15.885 2.24999 20.25 6.615 20.25 12C20.25 17.385 15.885 21.75 10.5 21.75C5.115 21.75 0.75 17.385 0.75 12ZM10.5 8.25C10.6989 8.25 10.8897 8.32901 11.0303 8.46967C11.171 8.61032 11.25 8.80108 11.25 9V11.25H13.5C13.6989 11.25 13.8897 11.329 14.0303 11.4697C14.171 11.6103 14.25 11.8011 14.25 12C14.25 12.1989 14.171 12.3897 14.0303 12.5303C13.8897 12.671 13.6989 12.75 13.5 12.75H11.25V15C11.25 15.1989 11.171 15.3897 11.0303 15.5303C10.8897 15.671 10.6989 15.75 10.5 15.75C10.3011 15.75 10.1103 15.671 9.96967 15.5303C9.82902 15.3897 9.75 15.1989 9.75 15V12.75H7.5C7.30109 12.75 7.11032 12.671 6.96967 12.5303C6.82902 12.3897 6.75 12.1989 6.75 12C6.75 11.8011 6.82902 11.6103 6.96967 11.4697C7.11032 11.329 7.30109 11.25 7.5 11.25H9.75V9C9.75 8.80108 9.82902 8.61032 9.96967 8.46967C10.1103 8.32901 10.3011 8.25 10.5 8.25Z" fill="#00A421"/>
</svg>
