<svg width="20" height="20" viewBox="0 0 20 20" fill="none" xmlns="http://www.w3.org/2000/svg">
<path fill-rule="evenodd" clip-rule="evenodd" d="M19.2432 13.809C16.6052 10.609 15.2902 10.896 13.8442 11.599C12.8432 12.085 11.9792 12.507 9.73325 10.26C7.48726 8.01304 7.90825 7.15009 8.39425 6.15109C9.09925 4.70409 9.38525 3.38609 6.18226 0.749085C5.41926 0.124085 4.58726 -0.115915 3.72126 0.0520848C1.88826 0.395085 0.593259 2.43508 0.595259 2.43508C-0.216741 3.57108 -1.32874 6.98708 5.83826 14.155C10.5522 18.87 13.6432 20.001 15.5192 20.001C16.4962 20.001 17.1422 19.695 17.5162 19.426C17.5372 19.414 19.5952 18.139 19.9422 16.27C20.1042 15.401 19.8692 14.574 19.2432 13.809Z" fill="black"/>
</svg>
