<svg width="20" height="15" viewBox="0 0 20 15" fill="none" xmlns="http://www.w3.org/2000/svg">
<path d="M14 13V15H0V13C0 13 0 9.00004 7 9.00004C14 9.00004 14 13 14 13ZM10.5 3.50004C10.5 2.8078 10.2947 2.13111 9.91014 1.55554C9.52556 0.979969 8.97893 0.531365 8.33939 0.266459C7.69985 0.0015519 6.99612 -0.0677598 6.31718 0.0672885C5.63825 0.202337 5.01461 0.53568 4.52513 1.02516C4.03564 1.51465 3.7023 2.13829 3.56725 2.81722C3.4322 3.49615 3.50152 4.19989 3.76642 4.83943C4.03133 5.47897 4.47993 6.0256 5.0555 6.41018C5.63108 6.79477 6.30777 7.00004 7 7.00004C7.92826 7.00004 8.8185 6.63129 9.47487 5.97491C10.1313 5.31853 10.5 4.42829 10.5 3.50004ZM13.94 9.00004C14.5547 9.47578 15.0578 10.0805 15.4137 10.7715C15.7696 11.4626 15.9697 12.2233 16 13V15H20V13C20 13 20 9.37004 13.94 9.00004ZM13 3.67965e-05C12.3118 -0.00316434 11.6388 0.202568 11.07 0.590037C11.6774 1.43877 12.0041 2.45632 12.0041 3.50004C12.0041 4.54375 11.6774 5.5613 11.07 6.41004C11.6388 6.79751 12.3118 7.00324 13 7.00004C13.9283 7.00004 14.8185 6.63129 15.4749 5.97491C16.1313 5.31853 16.5 4.42829 16.5 3.50004C16.5 2.57178 16.1313 1.68154 15.4749 1.02516C14.8185 0.368786 13.9283 3.67965e-05 13 3.67965e-05Z" fill="black"/>
</svg>
