<svg width="12" height="14" viewBox="0 0 12 14" fill="none" xmlns="http://www.w3.org/2000/svg">
<path d="M4.067 11.426C3.98356 11.7565 3.97808 12.102 4.051 12.435C1.49 12.073 0 10.264 0 8.5V8C0 7.60218 0.158035 7.22064 0.43934 6.93934C0.720644 6.65804 1.10218 6.5 1.5 6.5H7.523C7.538 6.855 7.65 7.201 7.851 7.5H1.5C1.36739 7.5 1.24021 7.55268 1.14645 7.64645C1.05268 7.74021 1 7.86739 1 8V8.5C1 9.753 2.088 11.1 4.067 11.426ZM5 0C5.72935 0 6.42882 0.289731 6.94454 0.805456C7.46027 1.32118 7.75 2.02065 7.75 2.75C7.75 3.47935 7.46027 4.17882 6.94454 4.69454C6.42882 5.21027 5.72935 5.5 5 5.5C4.27065 5.5 3.57118 5.21027 3.05546 4.69454C2.53973 4.17882 2.25 3.47935 2.25 2.75C2.25 2.02065 2.53973 1.32118 3.05546 0.805456C3.57118 0.289731 4.27065 0 5 0ZM5 1C4.53587 1 4.09075 1.18437 3.76256 1.51256C3.43437 1.84075 3.25 2.28587 3.25 2.75C3.25 3.21413 3.43437 3.65925 3.76256 3.98744C4.09075 4.31563 4.53587 4.5 5 4.5C5.46413 4.5 5.90925 4.31563 6.23744 3.98744C6.56563 3.65925 6.75 3.21413 6.75 2.75C6.75 2.28587 6.56563 1.84075 6.23744 1.51256C5.90925 1.18437 5.46413 1 5 1ZM8.584 6.081L8.867 5.331C9.125 4.651 9.929 4.315 10.607 4.604L10.995 4.77C11.468 4.972 11.86 5.338 11.942 5.83C12.399 8.555 10.034 12.431 7.312 13.42C6.82 13.598 6.288 13.46 5.867 13.174L5.521 12.939C5.37895 12.8433 5.25934 12.718 5.17044 12.5716C5.08154 12.4252 5.02546 12.2612 5.00607 12.0911C4.98667 11.9209 5.00443 11.7485 5.05811 11.5859C5.11179 11.4233 5.20012 11.2742 5.317 11.149L5.862 10.542C5.99002 10.401 6.15334 10.2968 6.3351 10.24C6.51687 10.1832 6.7105 10.176 6.896 10.219L8.121 10.509C9.09233 9.90233 9.613 9.049 9.683 7.949L8.805 7.089C8.67387 6.96085 8.58308 6.79714 8.54381 6.61804C8.50454 6.43894 8.51851 6.25226 8.584 6.081Z" fill="black"/>
</svg>
