<svg width="20" height="16" viewBox="0 0 20 16" fill="none" xmlns="http://www.w3.org/2000/svg">
<g opacity="0.4">
<path d="M2.11563 10.884C1.37188 9.918 1 9.43413 1 8C1 6.565 1.37188 6.08288 2.11563 5.116C3.6005 3.1875 6.09075 1 9.75 1C13.4093 1 15.8995 3.1875 17.3844 5.116C18.1281 6.08375 18.5 6.56587 18.5 8C18.5 9.435 18.1281 9.91712 17.3844 10.884C15.8995 12.8125 13.4093 15 9.75 15C6.09075 15 3.6005 12.8125 2.11563 10.884Z" stroke="#1736E3" stroke-width="1.5"/>
<path d="M12.375 8C12.375 8.69619 12.0984 9.36387 11.6062 9.85616C11.1139 10.3484 10.4462 10.625 9.75 10.625C9.05381 10.625 8.38613 10.3484 7.89384 9.85616C7.40156 9.36387 7.125 8.69619 7.125 8C7.125 7.30381 7.40156 6.63613 7.89384 6.14384C8.38613 5.65156 9.05381 5.375 9.75 5.375C10.4462 5.375 11.1139 5.65156 11.6062 6.14384C12.0984 6.63613 12.375 7.30381 12.375 8Z" stroke="#1736E3" stroke-width="1.5"/>
</g>
</svg>
