<svg width="19" height="16" viewBox="0 0 19 16" fill="none" xmlns="http://www.w3.org/2000/svg">
<path d="M2.08375 10.6016C1.36125 9.6632 1 9.19315 1 7.8C1 6.406 1.36125 5.93765 2.08375 4.9984C3.5262 3.125 5.9453 1 9.5 1C13.0547 1 15.4738 3.125 16.9163 4.9984C17.6388 5.9385 18 6.40685 18 7.8C18 9.194 17.6388 9.66235 16.9163 10.6016C15.4738 12.475 13.0547 14.6 9.5 14.6C5.9453 14.6 3.5262 12.475 2.08375 10.6016Z" stroke="#4CD964" stroke-width="1.5"/>
<path d="M12.05 7.8C12.05 8.4763 11.7813 9.1249 11.3031 9.60312C10.8249 10.0813 10.1763 10.35 9.49995 10.35C8.82365 10.35 8.17505 10.0813 7.69683 9.60312C7.21861 9.1249 6.94995 8.4763 6.94995 7.8C6.94995 7.1237 7.21861 6.4751 7.69683 5.99688C8.17505 5.51866 8.82365 5.25 9.49995 5.25C10.1763 5.25 10.8249 5.51866 11.3031 5.99688C11.7813 6.4751 12.05 7.1237 12.05 7.8Z" stroke="#4CD964" stroke-width="1.5"/>
</svg>
