<svg width="23" height="24" viewBox="0 0 23 24" fill="none" xmlns="http://www.w3.org/2000/svg">
<path d="M0.967924 11.9019C0.967409 13.7899 1.45424 15.6333 2.37993 17.2581L0.879395 22.8097L6.48616 21.32C8.03693 22.1755 9.77444 22.6237 11.5401 22.6238H11.5447C17.3735 22.6238 22.1183 17.8177 22.1208 11.9104C22.1219 9.04785 21.0227 6.35612 19.0258 4.331C17.0291 2.30607 14.3736 1.1903 11.5443 1.189C5.71484 1.189 0.970417 5.99485 0.96801 11.9019" fill="url(#paint0_linear_137_177)"/>
<path d="M0.591953 11.8993C0.591352 13.8537 1.09555 15.7616 2.05409 17.4434L0.5 23.1896L6.30688 21.6477C7.90687 22.5312 9.70829 22.997 11.5413 22.9977H11.5461C17.583 22.9977 22.4974 18.0224 22.5 11.9081C22.501 8.94496 21.3625 6.15854 19.2945 4.06244C17.2263 1.9666 14.4763 0.811552 11.5461 0.810333C5.50809 0.810333 0.594359 5.78493 0.591953 11.8993ZM4.05016 17.1537L3.83334 16.8052C2.92189 15.3375 2.44081 13.6415 2.4415 11.8999C2.44339 6.81788 6.52748 2.6832 11.5495 2.6832C13.9815 2.68425 16.2671 3.64435 17.9862 5.38633C19.7052 7.12848 20.6511 9.44433 20.6505 11.9074C20.6483 16.9895 16.5641 21.1247 11.5461 21.1247H11.5425C9.90852 21.1238 8.30605 20.6795 6.90853 19.8397L6.57595 19.64L3.13003 20.5549L4.05016 17.1537Z" fill="url(#paint1_linear_137_177)"/>
<path d="M8.70333 7.35543C8.49359 6.90305 8.27285 6.89392 8.07339 6.88599C7.91006 6.87917 7.72334 6.87968 7.5368 6.87968C7.35009 6.87968 7.04672 6.94784 6.79029 7.21954C6.5336 7.4915 5.8103 8.1487 5.8103 9.48537C5.8103 10.822 6.81359 12.1139 6.95345 12.2954C7.09349 12.4765 8.89031 15.3073 11.736 16.3963C14.1011 17.3013 14.5824 17.1213 15.0957 17.076C15.6091 17.0308 16.7522 16.4189 16.9854 15.7845C17.2188 15.1502 17.2188 14.6064 17.1489 14.4928C17.0789 14.3796 16.8922 14.3116 16.6122 14.1758C16.3322 14.04 14.9557 13.3826 14.6991 13.2919C14.4424 13.2013 14.2557 13.1561 14.069 13.4282C13.8823 13.6998 13.3462 14.3116 13.1827 14.4928C13.0195 14.6744 12.8561 14.697 12.5762 14.5611C12.296 14.4248 11.3944 14.1383 10.3246 13.2128C9.4923 12.4926 8.9304 11.6033 8.76707 11.3312C8.60373 11.0596 8.74957 10.9124 8.88996 10.777C9.01576 10.6553 9.17003 10.4597 9.31016 10.3012C9.44975 10.1425 9.49635 10.0293 9.5897 9.8481C9.68315 9.66673 9.63638 9.50806 9.5665 9.37217C9.49635 9.23628 8.95229 7.89261 8.70333 7.35543Z" fill="white"/>
<defs>
<linearGradient id="paint0_linear_137_177" x1="1062.95" y1="2163.26" x2="1062.95" y2="1.189" gradientUnits="userSpaceOnUse">
<stop stop-color="#1FAF38"/>
<stop offset="1" stop-color="#60D669"/>
</linearGradient>
<linearGradient id="paint1_linear_137_177" x1="1100.5" y1="2238.74" x2="1100.5" y2="0.810333" gradientUnits="userSpaceOnUse">
<stop stop-color="#F9F9F9"/>
<stop offset="1" stop-color="white"/>
</linearGradient>
</defs>
</svg>
