<svg width="42" height="42" viewBox="0 0 42 42" fill="none" xmlns="http://www.w3.org/2000/svg">
<path fill-rule="evenodd" clip-rule="evenodd" d="M21.0885 0.0932617C11.8721 0.0932617 4.39532 7.57001 4.39532 16.7864C4.39532 29.5055 21.0885 41.9096 21.0885 41.9096C21.0885 41.9096 37.7816 29.5036 37.7816 16.7864C37.7816 7.57001 30.3049 0.0932617 21.0885 0.0932617Z" fill="#F41F52"/>
<path d="M24.9654 14.6826L21.6975 14.9551L22.7519 11.4119C22.7788 11.319 22.7639 11.2168 22.7071 11.1363C22.6504 11.0557 22.5608 11.0093 22.4682 11.0093H18.1816C18.0263 11.0093 17.8979 11.1332 17.8829 11.2942L17.3004 18.489C17.2945 18.5788 17.3243 18.6717 17.3871 18.7337C17.4498 18.7987 17.5364 18.8297 17.626 18.8235L20.5265 18.5478L19.9679 24.6122C19.953 24.7608 20.0456 24.8971 20.183 24.9405C20.2099 24.9498 20.2398 24.9528 20.2667 24.9528C20.3772 24.9528 20.4817 24.8909 20.5325 24.7825L25.2552 15.1316C25.303 15.0325 25.297 14.9117 25.2372 14.8188C25.1775 14.7259 25.0729 14.6733 24.9654 14.6826Z" fill="white"/>
<circle cx="21" cy="18" r="12.25" stroke="white" stroke-width="1.5"/>
</svg>
