<svg width="18" height="19" viewBox="0 0 18 19" fill="none" xmlns="http://www.w3.org/2000/svg">
<g clip-path="url(#clip0_1104_3698)">
<path d="M3.80268 17.932C3.70518 18.094 3.7438 18.3036 3.89343 18.4202C4.04268 18.5369 4.2553 18.5237 4.38955 18.3899L14.8896 7.88986C15.0036 7.77548 15.0321 7.60111 14.9601 7.45711C14.8877 7.31274 14.7332 7.22986 14.5716 7.25349L10.1016 7.89211L14.1954 1.06823C14.2929 0.905484 14.2539 0.696234 14.1047 0.579609C13.9551 0.462609 13.7424 0.476109 13.6089 0.609984L3.10893 11.11C2.99493 11.2244 2.96643 11.3987 3.03843 11.5427C3.11043 11.6867 3.26455 11.7692 3.42693 11.7464L7.89655 11.1077L3.80268 17.932Z" fill="#3EBF80"/>
</g>
<defs>
<clipPath id="clip0_1104_3698">
<rect width="18" height="18" fill="white" transform="translate(0 0.5)"/>
</clipPath>
</defs>
</svg>
