<svg width="20" height="21" viewBox="0 0 20 21" fill="none" xmlns="http://www.w3.org/2000/svg">
<path d="M10.8337 8.00008C10.8337 8.91675 11.5837 9.66675 12.5003 9.66675C13.417 9.66675 14.167 8.91675 14.167 8.00008C14.167 7.08341 13.417 6.33341 12.5003 6.33341C11.5837 6.33341 10.8337 7.08341 10.8337 8.00008ZM5.83366 8.00008C5.83366 8.91675 6.58366 9.66675 7.50033 9.66675C8.41699 9.66675 9.16699 8.91675 9.16699 8.00008C9.16699 7.08341 8.41699 6.33341 7.50033 6.33341C6.58366 6.33341 5.83366 7.08341 5.83366 8.00008ZM7.50033 11.5001C7.50033 11.0001 7.00033 10.5001 6.50033 10.5001C6.00033 10.5001 5.50033 11.0001 5.50033 11.5001C5.50033 12.0001 6.00033 12.5001 6.50033 12.5001C7.00033 12.5001 7.50033 12.0834 7.50033 11.5001ZM11.667 13.8334C11.667 12.9167 10.917 12.1667 10.0003 12.1667C9.08366 12.1667 8.33366 12.9167 8.33366 13.8334C8.33366 14.7501 9.08366 15.5001 10.0003 15.5001C10.917 15.5001 11.667 14.7501 11.667 13.8334ZM10.0003 3.83341C13.667 3.83341 16.667 6.83341 16.667 10.5001C16.667 14.1667 13.667 17.1667 10.0003 17.1667C6.33366 17.1667 3.33366 14.1667 3.33366 10.5001C3.33366 6.83341 6.33366 3.83341 10.0003 3.83341ZM10.0003 2.16675C5.41699 2.16675 1.66699 5.91675 1.66699 10.5001C1.66699 15.0834 5.41699 18.8334 10.0003 18.8334C14.5837 18.8334 18.3337 15.0834 18.3337 10.5001C18.3337 5.91675 14.5837 2.16675 10.0003 2.16675ZM14.5837 11.5001C14.5837 10.9167 14.0837 10.5001 13.5837 10.5001C13.0003 10.5001 12.5837 11.0001 12.5837 11.5001C12.5837 12.0001 13.0837 12.5001 13.5837 12.5001C14.0837 12.5834 14.5837 12.0834 14.5837 11.5001Z" fill="#3EBF80"/>
</svg>
