<svg width="141" height="29" viewBox="0 0 141 29" fill="none" xmlns="http://www.w3.org/2000/svg">
<path d="M90.5835 16.5439C90.5835 17.8489 90.5835 19.1641 90.5835 20.6113C87.3808 20.5554 84.7717 19.291 82.8561 16.7521C80.3917 13.487 79.9777 9.85624 81.7486 6.14936C83.4897 2.51865 86.4978 0.695675 90.5486 0.451935C90.5486 1.83821 90.5486 3.17878 90.5486 4.6006C88.6529 4.76817 87.0266 5.5197 85.8942 7.18018C85.1559 8.26178 84.8166 9.46524 84.8765 10.7804C85.0162 13.8526 86.7223 15.5791 90.5835 16.5439Z" fill="white"/>
<path d="M99.5131 17.7524C98.1862 17.7524 96.9141 17.7524 95.5372 17.7524C95.5372 16.1732 95.5372 14.599 95.5372 12.9538C93.9209 12.9538 92.3994 12.9538 90.808 12.9538C90.808 11.537 90.808 10.2015 90.808 8.80511C93.6814 8.80511 96.5599 8.80511 99.5082 8.80511C99.5131 11.7452 99.5131 14.7006 99.5131 17.7524Z" fill="white"/>
<path d="M19.2611 17.9251C17.2507 19.941 14.6566 20.8499 11.7532 20.8499C4.30022 20.8499 1.34196 15.965 1.31203 10.5367C1.28709 5.39783 4.57958 0 11.7532 0C14.4321 0 16.9165 1.05113 18.9269 3.06706L16.1931 5.82437C15.0208 4.66153 13.3197 4.17405 11.7532 4.17405C7.31335 4.17405 5.5823 7.66766 5.61223 10.5672C5.64216 13.4666 7.17367 16.7622 11.7532 16.7622C13.3147 16.7622 15.38 16.0513 16.5523 14.858L19.2611 17.9251Z" fill="white"/>
<path d="M33.9427 20.3726V12.5018H25.2026V20.3726H20.8525V0.482391H25.2076V8.43949H33.9427V0.482391H38.2429V20.3726H33.9427Z" fill="white"/>
<path d="M55.4336 16.9349H45.4115L43.9897 20.3421H39.3004L48.0654 0.457001H52.8096L61.5746 20.3472H56.8554L55.4336 16.9349ZM50.435 4.94588L47.0577 13.0147H53.7824L50.435 4.94588Z" fill="white"/>
<path d="M79.9678 20.3421H75.1388L70.1402 13.8069H66.9874V20.3421H62.6323V0.457001C65.8151 0.457001 68.7434 0.457001 71.9012 0.457001C76.6204 0.457001 79.1297 3.66625 79.1297 7.15985C79.0998 9.74452 78.3465 12.0448 74.61 13.4108L79.9678 20.0019V20.3421ZM66.9874 4.26036V10.0543H71.9561C73.9665 10.0543 74.8295 8.52074 74.8295 7.27157C74.7996 5.90561 73.9366 4.26036 71.9012 4.26036H66.9874Z" fill="white"/>
<path d="M117.712 20.7331H102.836C102.836 14.1115 102.836 7.46453 102.836 0.842926H117.323V4.90526H107.106V8.73909H116.734V12.6339H107.106V16.6403H117.712V20.7331Z" fill="white"/>
<path d="M137.472 20.7331H132.643L127.649 14.1979H124.496V20.7331H120.141V0.842926C123.324 0.842926 126.252 0.842926 129.41 0.842926C134.129 0.842926 136.639 4.05217 136.639 7.54578C136.609 10.1304 135.855 12.4307 132.119 13.7967L137.477 20.3878V20.7331H137.472ZM124.491 4.65137V10.4453H129.46C131.47 10.4453 132.333 8.91174 132.333 7.66257C132.304 6.29661 131.44 4.65137 129.4 4.65137H124.491Z" fill="white"/>
<path d="M3.96094 28.9441V25.4505H6.31058V25.7806H4.30515V27.1059H6.23575V27.436H4.30515V28.9441H3.96094Z" fill="white"/>
<path d="M12.2421 25.4505V27.5833C12.2421 28.5278 11.6335 28.9797 10.8902 28.9797C10.1469 28.9797 9.51831 28.5278 9.51831 27.5833V25.4505H9.86253V27.5833C9.86253 28.2485 10.3065 28.6547 10.8902 28.6547C11.409 28.6547 11.8979 28.3094 11.8979 27.5833V25.4505H12.2421Z" fill="white"/>
<path d="M16.0184 25.4505V28.6141H17.9241V28.9441H15.6742V25.4505H16.0184Z" fill="white"/>
<path d="M21.3463 25.4505V28.6141H23.2519V28.9441H21.0021V25.4505H21.3463Z" fill="white"/>
<path d="M26.9485 27.1973L28.056 25.4505H28.4601V25.4607L27.1231 27.5376V28.9441H26.7789V27.5376L25.4619 25.4607V25.4505H25.861L26.9485 27.1973Z" fill="white"/>
<path d="M37.9435 28.4668C37.5943 28.8223 37.1553 28.9949 36.6914 28.9949C35.5041 28.9949 34.9104 28.1875 34.9054 27.2126C34.9004 26.2579 35.4991 25.3947 36.6914 25.3947C37.1453 25.3947 37.6093 25.5572 37.9086 25.9177L37.6991 26.131C37.4197 25.8517 37.0605 25.7095 36.6914 25.7095C35.7335 25.7095 35.2496 26.4306 35.2496 27.2024C35.2496 28.02 35.7335 28.6649 36.6914 28.6649C37.0605 28.6649 37.4446 28.5125 37.719 28.2332L37.9435 28.4668Z" fill="white"/>
<path d="M43.5407 28.9441V27.3954H41.4604V28.9441H41.1162V25.4505H41.4604V27.0653H43.5407V25.4505H43.8849V28.9441H43.5407Z" fill="white"/>
<path d="M49.6917 28.1368H47.7013L47.3471 28.9441H46.9829L48.5244 25.4505H48.8686L50.4101 28.9441H50.0459L49.6917 28.1368ZM47.836 27.8168H49.5521L48.694 25.8314L47.836 27.8168Z" fill="white"/>
<path d="M56.3166 28.9441H55.8727L54.7352 27.6543H53.8473V28.9441H53.5031V25.4505C54.0169 25.4505 54.5307 25.4505 55.0445 25.4505C55.8078 25.4505 56.177 25.9685 56.1819 26.5575C56.1869 27.1009 55.8727 27.5985 55.1493 27.629L56.3166 28.9441ZM53.8473 25.7806V27.3294H55.0246C55.5733 27.3294 55.8377 26.9993 55.8377 26.5626C55.8377 26.1259 55.5733 25.7857 55.0445 25.7857H53.8473V25.7806Z" fill="white"/>
<path d="M62.1134 26.1361C61.834 25.8517 61.4249 25.7146 61.0608 25.7146C60.1229 25.7146 59.6191 26.4255 59.624 27.2075C59.624 27.9692 60.098 28.6496 61.0608 28.6496C61.405 28.6496 61.7642 28.5278 62.0485 28.2688V27.3852H60.9261V27.0653H62.3778V28.416C62.0236 28.7867 61.5995 28.9898 61.0658 28.9898C59.8685 28.9898 59.2848 28.1571 59.2848 27.2126C59.2798 26.1462 59.9832 25.3845 61.0658 25.3845C61.5197 25.3845 61.9787 25.5572 62.3279 25.9075L62.1134 26.1361Z" fill="white"/>
<path d="M68.1397 28.9441H65.6803C65.6803 27.7813 65.6803 26.6134 65.6803 25.4505H68.0998V25.7806H66.0245V27.0348H68.005V27.3598H66.0245V28.6192H68.1447V28.9441H68.1397Z" fill="white"/>
<path d="M72.6195 25.4505C73.7818 25.4505 74.3405 26.2985 74.3405 27.1618C74.3405 28.0453 73.8217 28.9441 72.6195 28.9441C72.2204 28.9441 71.8063 28.9441 71.4072 28.9441V25.4505H72.6195ZM71.7514 28.6192H72.6195C73.5773 28.6192 74.0063 27.8625 73.9913 27.1567C73.9764 26.4763 73.5474 25.7806 72.6195 25.7806H71.7514V28.6192Z" fill="white"/>
<path d="M81.3246 28.9441V25.4505H83.6742V25.7806H81.6688V27.1059H83.5994V27.436H81.6688V28.9441H81.3246Z" fill="white"/>
<path d="M89.6057 25.4505V27.5833C89.6057 28.5278 88.9971 28.9797 88.2538 28.9797C87.5105 28.9797 86.882 28.5278 86.882 27.5833V25.4505H87.2262V27.5833C87.2262 28.2485 87.6702 28.6547 88.2538 28.6547C88.7726 28.6547 89.2615 28.3094 89.2615 27.5833V25.4505H89.6057Z" fill="white"/>
<path d="M93.3822 25.4505V28.6141H95.2878V28.9441H93.038V25.4505H93.3822Z" fill="white"/>
<path d="M98.7099 25.4505V28.6141H100.616V28.9441H98.3657V25.4505H98.7099Z" fill="white"/>
<path d="M104.312 27.1973L105.42 25.4505H105.824V25.4607L104.487 27.5376V28.9441H104.143V27.5376L102.826 25.4607V25.4505H103.225L104.312 27.1973Z" fill="white"/>
<path d="M115.302 28.9441H114.858L113.721 27.6543H112.833V28.9441H112.489V25.4505C113.002 25.4505 113.516 25.4505 114.03 25.4505C114.793 25.4505 115.162 25.9685 115.167 26.5575C115.172 27.1009 114.858 27.5985 114.135 27.629L115.302 28.9441ZM112.828 25.7806V27.3294H114.005C114.554 27.3294 114.818 26.9993 114.818 26.5626C114.818 26.1259 114.554 25.7857 114.025 25.7857H112.828V25.7806Z" fill="white"/>
<path d="M120.939 28.9441H118.48C118.48 27.7813 118.48 26.6134 118.48 25.4505H120.899V25.7806H118.824V27.0348H120.805V27.3598H118.824V28.6192H120.944V28.9441H120.939Z" fill="white"/>
<path d="M126.542 28.1368H124.551L124.197 28.9441H123.833L125.374 25.4505H125.718L127.26 28.9441H126.896L126.542 28.1368ZM124.691 27.8168H126.407L125.549 25.8314L124.691 27.8168Z" fill="white"/>
<path d="M131.57 25.4505C132.732 25.4505 133.291 26.2985 133.291 27.1618C133.291 28.0453 132.772 28.9441 131.57 28.9441C131.171 28.9441 130.757 28.9441 130.358 28.9441V25.4505H131.57ZM130.702 28.6192H131.57C132.528 28.6192 132.957 27.8625 132.942 27.1567C132.927 26.4763 132.498 25.7806 131.57 25.7806H130.702V28.6192Z" fill="white"/>
<path d="M137.442 27.1973L138.549 25.4505H138.953V25.4607L137.616 27.5376V28.9441H137.272V27.5376L135.955 25.4607V25.4505H136.354L137.442 27.1973Z" fill="white"/>
</svg>
