<svg width="44" height="47" viewBox="0 0 44 47" fill="none" xmlns="http://www.w3.org/2000/svg">
<path d="M23.001 37.3668C23.001 40.3344 23.001 43.3346 23.001 46.6336C15.5746 46.5063 9.52997 43.6275 5.08596 37.8432C-0.627331 30.402 -1.59187 22.1324 2.52075 13.6941C6.55645 5.41855 13.539 1.2645 22.9271 0.720093C22.9271 3.88297 22.9271 6.9275 22.9271 10.1762C18.5363 10.5519 14.761 12.2769 12.1396 16.0522C10.4265 18.5198 9.6424 21.2625 9.7785 24.2508C10.0951 31.2393 14.0479 35.1744 23.001 37.3668Z" fill="#1736E5"/>
<path d="M43.7002 40.1214C40.6202 40.1214 37.6703 40.1214 34.4838 40.1214C34.4838 36.5207 34.4838 32.9436 34.4838 29.186C30.7321 29.186 27.2113 29.186 23.5217 29.186C23.5217 25.964 23.5217 22.9194 23.5217 19.7358C30.1818 19.7358 36.8626 19.7358 43.7002 19.7358C43.7002 26.4373 43.7002 33.1684 43.7002 40.1214Z" fill="#EF442E"/>
</svg>
