<svg width="19" height="20" viewBox="0 0 19 20" fill="none" xmlns="http://www.w3.org/2000/svg">
<path d="M3.7998 6.06025V2.90903H10.1869V6.06025H12.4134V2.91211C12.4134 1.58207 11.3314 0.5 10.0013 0.5H3.98535C2.65531 0.5 1.57324 1.58207 1.57324 2.91211V6.06025H3.7998Z" fill="#007AFF"/>
<path d="M4.91309 4.02222H9.0736V6.06015H4.91309V4.02222Z" fill="#007AFF"/>
<path d="M17.9225 4.97085V3.24463H16.8092V4.97085H15.6133V3.24463H14.5V4.97085H13.7436V6.51074C13.7436 7.67994 14.5613 8.66111 15.6547 8.91427V14.1622C15.6547 14.4683 15.4199 14.7321 15.1141 14.7472C14.7873 14.7633 14.5163 14.5021 14.5163 14.1787V10.8768C14.5163 9.71543 13.5748 8.77393 12.4135 8.77393V7.17355H1.57324V16.0771C2.01759 15.8425 2.52317 15.709 3.05958 15.709H10.9271C11.4635 15.709 11.9691 15.8425 12.4134 16.0771V9.88721C12.96 9.88721 13.403 10.3302 13.403 10.8768V14.1489C13.403 15.0903 14.1734 15.877 15.1147 15.8609C16.0289 15.8453 16.7679 15.0967 16.7679 14.1787V8.91427C17.8612 8.66111 18.6789 7.67994 18.6789 6.51074V4.97085H17.9225ZM7.30783 14.3606L6.26717 13.9651L7.01979 11.9847H5.35265L6.67979 8.49542L7.72034 8.89115L6.96716 10.8714H8.63382L7.30783 14.3606Z" fill="#007AFF"/>
<path d="M10.9269 16.8223H3.05938C1.90962 16.8223 0.977539 17.7543 0.977539 18.9041V19.5H13.0088V18.9041C13.0088 17.7543 12.0767 16.8223 10.9269 16.8223Z" fill="#007AFF"/>
</svg>
