<svg width="19" height="20" viewBox="0 0 19 20" fill="none" xmlns="http://www.w3.org/2000/svg">
<g clip-path="url(#clip0_3476_3811)">
<path fill-rule="evenodd" clip-rule="evenodd" d="M18.1141 0.975098C17.8419 0.975098 17.3411 1.02709 16.6102 1.12918C15.8793 1.23165 15.4068 1.33082 15.1938 1.42466C14.98 1.51851 14.5938 1.84418 14.0361 2.39796C13.4778 2.9538 12.6681 3.9795 11.6093 5.47441C10.5489 6.97098 9.55996 8.55073 8.64055 10.215C7.72075 11.8798 6.86234 13.6082 6.06569 15.3999C5.32863 14.1381 4.66258 13.2826 4.06428 12.8325C3.46748 12.3808 2.96401 12.1555 2.55466 12.1555C2.23496 12.1555 1.83446 12.3259 1.35131 12.6653C0.868786 13.0056 0.627441 13.3388 0.627441 13.6674C0.627441 13.9052 0.848862 14.2576 1.29171 14.7236C2.16878 15.6503 2.94515 16.633 3.61701 17.6732C4.0274 18.2954 4.3003 18.6771 4.43637 18.8164C4.57168 18.9542 4.98395 19.0251 5.67344 19.0251C6.63256 19.0251 7.20222 18.9021 7.38344 18.6547C7.56301 18.4165 7.89528 17.7065 8.37995 16.5228C9.57749 13.5592 11.0664 10.7291 12.8462 8.03446C14.6274 5.341 16.2589 3.30334 17.7442 1.92293C18.04 1.66067 18.2178 1.49075 18.2803 1.41225C18.3412 1.3335 18.3723 1.25424 18.3723 1.17168C18.3722 1.04144 18.2859 0.975098 18.1141 0.975098Z" fill="#09B285"/>
</g>
<defs>
<clipPath id="clip0_3476_3811">
<rect width="19" height="19" fill="white" transform="translate(0 0.5)"/>
</clipPath>
</defs>
</svg>
