<svg width="17" height="18" viewBox="0 0 17 18" fill="none" xmlns="http://www.w3.org/2000/svg">
<g clip-path="url(#clip0_3476_3818)">
<path d="M1.10176 17.5136C0.819819 17.5136 0.537673 17.4057 0.323088 17.1909C-0.107696 16.7603 -0.107696 16.0641 0.323088 15.6335L15.1196 0.836852C15.5502 0.406271 16.2463 0.406271 16.6769 0.836852C17.1077 1.26743 17.1077 1.96363 16.6769 2.39421L1.88044 17.1909C1.66445 17.4067 1.38371 17.5136 1.10176 17.5136Z" fill="#F44336"/>
<path d="M15.8982 17.5136C15.6163 17.5136 15.3344 17.4057 15.1196 17.1909L0.323088 2.39421C-0.107696 1.96363 -0.107696 1.26743 0.323088 0.836852C0.753669 0.406271 1.44966 0.406271 1.88044 0.836852L16.6769 15.6335C17.1077 16.0641 17.1077 16.7603 16.6769 17.1909C16.4621 17.4067 16.1802 17.5136 15.8982 17.5136Z" fill="#F44336"/>
</g>
<defs>
<clipPath id="clip0_3476_3818">
<rect width="17" height="17" fill="white" transform="translate(0 0.5)"/>
</clipPath>
</defs>
</svg>
