<svg width="20" height="20" viewBox="0 0 20 20" fill="none" xmlns="http://www.w3.org/2000/svg">
<g clip-path="url(#clip0_3476_3847)">
<path d="M7.09955 18.1112C6.92561 18.3166 6.67958 18.0725 6.74708 17.7882L8.02631 12.4076C8.12729 12.0035 7.96939 11.5789 7.62895 11.339L4.79925 9.48383C4.6458 9.35424 4.62491 9.12539 4.75241 8.97016L11.0463 1.88353C11.2235 1.68336 11.4741 1.94216 11.3889 2.23109L9.84404 7.4679C9.71346 7.88419 9.86746 8.33711 10.2247 8.5876L13.0544 10.4584C13.2054 10.586 13.228 10.8104 13.1055 10.9655L7.09955 18.1112Z" fill="#FFA800"/>
<path d="M17.1164 14.2585C17.1164 14.8013 16.6764 15.2413 16.1337 15.2413H10.3682L13.609 11.3859C13.7939 11.1616 13.8742 10.869 13.8298 10.5817C13.7943 10.3096 13.6443 10.0655 13.4177 9.91081L10.5867 8.04128C10.4733 7.94724 10.4285 7.79365 10.4736 7.65341L11.3267 4.75854H16.1337C16.6764 4.75854 17.1164 5.19855 17.1164 5.74131V14.2585Z" fill="#FFA800"/>
<path d="M19.0818 11.6376C19.0818 11.8185 18.9352 11.9652 18.7542 11.9652H17.7715V8.03418H18.7543C18.9352 8.03418 19.0819 8.18084 19.0819 8.36178L19.0818 11.6376Z" fill="#FFA800"/>
<path d="M6.67926 15.2412L6.52203 15.8964H4.3403C4.15939 15.8964 4.0127 15.7498 4.0127 15.5688C4.0127 15.3879 4.15935 15.2412 4.3403 15.2412H6.67926V15.2412Z" fill="#FFA800"/>
<path d="M3.03006 15.8964H2.04733C1.86642 15.8964 1.71973 15.7498 1.71973 15.5688C1.71973 15.3879 1.86638 15.2412 2.04733 15.2412H3.0301C3.211 15.2412 3.3577 15.3879 3.3577 15.5688C3.3577 15.7498 3.211 15.8964 3.03006 15.8964Z" fill="#FFA800"/>
<path d="M4.88773 10.3273H0.409633C0.228725 10.3273 0.0820312 10.1807 0.0820312 9.99972C0.0820312 9.81881 0.228688 9.67212 0.409633 9.67212H4.12447C4.19512 9.81822 4.30374 9.94268 4.43893 10.0325L4.88773 10.3273Z" fill="#FFA800"/>
<path d="M8.19937 4.10331L7.61954 4.75847H4.99557C4.81466 4.75847 4.66797 4.61182 4.66797 4.43087C4.66797 4.24993 4.81463 4.10327 4.99557 4.10327L8.19937 4.10331Z" fill="#FFA800"/>
<path d="M3.68533 4.75847H2.7026C2.52169 4.75847 2.375 4.61182 2.375 4.43087C2.375 4.24993 2.52166 4.10327 2.7026 4.10327H3.68537C3.86628 4.10327 4.01297 4.24993 4.01297 4.43087C4.01297 4.61182 3.86628 4.75847 3.68533 4.75847Z" fill="#FFA800"/>
<path d="M6.45371 6.06864L5.87061 6.72381H1.06491C0.883998 6.72381 0.737305 6.57715 0.737305 6.39621C0.737305 6.21526 0.883961 6.0686 1.06491 6.0686H6.45371V6.06864Z" fill="#FFA800"/>
<path d="M4.99866 7.70658L4.41556 8.36175H3.68502C3.50412 8.36175 3.35742 8.21509 3.35742 8.03414C3.35742 7.8532 3.50408 7.70654 3.68502 7.70654H4.99866V7.70658Z" fill="#FFA800"/>
<path d="M2.37535 8.36175H1.72018C1.53927 8.36175 1.39258 8.21509 1.39258 8.03414C1.39258 7.8532 1.53923 7.70654 1.72018 7.70654H2.37535C2.55625 7.70654 2.70295 7.8532 2.70295 8.03414C2.70295 8.21509 2.55625 8.36175 2.37535 8.36175Z" fill="#FFA800"/>
<path d="M7.14765 13.2757L6.99042 13.9308H0.736781C0.555873 13.9308 0.40918 13.7842 0.40918 13.6032C0.40918 13.4223 0.555836 13.2756 0.736781 13.2756H7.14765V13.2757Z" fill="#FFA800"/>
<path d="M7.39065 12.2569L7.38082 12.2929H4.66842C4.48751 12.2929 4.34082 12.1462 4.34082 11.9653C4.34082 11.7844 4.48748 11.6377 4.66842 11.6377H6.88945L7.26945 11.8867C7.378 11.9763 7.42517 12.1205 7.39065 12.2569Z" fill="#FFA800"/>
<path d="M3.35766 12.2929H2.04733C1.86642 12.2929 1.71973 12.1462 1.71973 11.9653C1.71973 11.7844 1.86638 11.6377 2.04733 11.6377H3.35766C3.53857 11.6377 3.68526 11.7844 3.68526 11.9653C3.68526 12.1462 3.53857 12.2929 3.35766 12.2929Z" fill="#FFA800"/>
</g>
<defs>
<clipPath id="clip0_3476_3847">
<rect width="19" height="19" fill="white" transform="translate(0.0820312 0.5)"/>
</clipPath>
</defs>
</svg>
