<svg width="20" height="20" viewBox="0 0 20 20" fill="none" xmlns="http://www.w3.org/2000/svg">
<path d="M17.4992 9.20316C17.7895 9.20316 18.027 8.96565 18.027 8.67538C18.027 8.37983 17.7895 8.1476 17.4992 8.1476H16.2959V6.54314H17.4992C17.7895 6.54314 18.027 6.30566 18.027 6.01536C18.027 5.72509 17.7895 5.48758 17.4992 5.48758H16.2959V4.87009C16.2959 3.99928 15.5887 3.28676 14.7126 3.28676H14.0951V2.08344C14.0951 1.79314 13.8628 1.55566 13.5673 1.55566C13.277 1.55566 13.0395 1.79314 13.0395 2.08344V3.28676H11.4403V2.08344C11.4403 1.79314 11.2028 1.55566 10.9126 1.55566C10.6223 1.55566 10.3848 1.79314 10.3848 2.08344V3.28676H8.78033V2.08344C8.78033 1.79314 8.54285 1.55566 8.25255 1.55566C7.96228 1.55566 7.72477 1.79314 7.72477 2.08344V3.28676H6.12562V2.08344C6.12562 1.79314 5.88811 1.55566 5.59784 1.55566C5.30229 1.55566 5.07006 1.79314 5.07006 2.08344V3.28676H4.45257C3.57644 3.28676 2.86924 3.99928 2.86924 4.87009V5.48758H1.66589C1.37562 5.48758 1.13811 5.72509 1.13811 6.01536C1.13811 6.30566 1.37562 6.54314 1.66589 6.54314H2.86924V8.1476H1.66589C1.37562 8.1476 1.13811 8.37983 1.13811 8.67538C1.13811 8.96565 1.37562 9.20316 1.66589 9.20316H2.86924V10.8023H1.66589C1.37562 10.8023 1.13811 11.0398 1.13811 11.3301C1.13811 11.6204 1.37562 11.8579 1.66589 11.8579H2.86924V13.4605H1.66547C1.37401 13.4605 1.1377 13.6966 1.1377 13.9883C1.1377 14.28 1.37401 14.516 1.66547 14.516H2.86924V15.1301C2.86924 16.0062 3.57644 16.7134 4.45257 16.7134H5.07006V17.9168C5.07006 18.2123 5.30229 18.4446 5.59784 18.4446C5.88811 18.4446 6.12562 18.2123 6.12562 17.9168V16.7134H7.72477V17.9168C7.72477 18.2123 7.96228 18.4446 8.25255 18.4446C8.54285 18.4446 8.78033 18.2123 8.78033 17.9168V16.7134H10.3848V17.9168C10.3848 18.2123 10.6223 18.4446 10.9126 18.4446C11.2028 18.4446 11.4403 18.2123 11.4403 17.9168V16.7134H13.0395V17.9168C13.0395 18.2123 13.277 18.4446 13.5673 18.4446C13.8628 18.4446 14.0951 18.2123 14.0951 17.9168V16.7134H14.7126C15.5887 16.7134 16.2959 16.0062 16.2959 15.1301V14.5179H17.4992C17.7895 14.5179 18.027 14.2804 18.027 13.9901C18.027 13.6946 17.7895 13.4623 17.4992 13.4623H16.2959V11.8579H17.4992C17.7895 11.8579 18.027 11.6204 18.027 11.3301C18.027 11.0398 17.7895 10.8023 17.4992 10.8023H16.2959V9.20316H17.4992ZM13.3562 11.5834C13.1398 12.1482 12.5698 12.4965 11.5987 12.4965H7.24979C6.61645 12.4965 6.01478 12.1323 5.7984 11.5359C5.43952 10.5596 6.2998 9.66232 7.22866 9.66232C7.01757 9.30344 6.95952 8.83899 7.13894 8.39036C7.30255 7.97343 7.67729 7.65149 8.11007 7.54593C8.83841 7.37175 9.50866 7.76234 9.77255 8.36398C10.0629 8.01038 10.5378 7.80982 11.0498 7.90481C11.567 8.00509 11.9681 8.44844 12.0684 8.96565C12.1265 9.25064 12.0737 9.42482 11.9945 9.63066C12.9392 9.63066 13.7256 10.6018 13.3562 11.5834Z" fill="#5046E5"/>
</svg>
