<svg width="20" height="20" viewBox="0 0 20 20" fill="none" xmlns="http://www.w3.org/2000/svg">
<g clip-path="url(#clip0_3476_3874)">
<path d="M15.0454 12.1448V8.65729C15.0454 8.50281 14.9266 8.41967 14.8078 8.50281L11.243 10.5585C11.1658 10.6001 11.0886 10.7189 11.0886 10.8377V14.955C11.0886 15.1154 11.2074 15.1926 11.3262 15.1154L14.3325 13.3746L17.2674 15.0738L9.62109 19.4881L9.60327 19.5L9.5795 19.4881L4.40471 16.4937L1.95099 15.0679L4.86816 13.3746L7.88032 15.1154C7.9991 15.1926 8.11793 15.0738 8.07634 14.9194V10.7961C8.07634 10.6773 8.03479 10.6001 7.91597 10.5228L4.35124 8.46123C4.274 8.41964 4.11359 8.50278 4.11359 8.6216V12.1032L1.18457 13.8083V4.93809L8.90815 0.5V3.90432L5.89595 5.65103C5.77713 5.68668 5.77713 5.88868 5.89595 5.92433L9.46068 7.98593C9.54386 8.02752 9.66268 8.06316 9.78151 7.98593L13.3462 5.92433C13.4651 5.88868 13.4651 5.72827 13.3462 5.65103L10.334 3.90432V0.5L17.9804 4.93809V13.7905L15.0454 12.1448Z" fill="#E86F00"/>
</g>
<defs>
<clipPath id="clip0_3476_3874">
<rect width="19" height="19" fill="white" transform="translate(0.0820312 0.5)"/>
</clipPath>
</defs>
</svg>
