<svg width="29" height="20" viewBox="0 0 29 20" fill="none" xmlns="http://www.w3.org/2000/svg">
<path d="M2.80811 3.30811H5.00135V16.6918H2.80811V3.30811Z" fill="#4D5E80"/>
<path d="M23.0806 3.30811H25.2738V16.6918H23.0806V3.30811Z" fill="#4D5E80"/>
<path d="M8.8252 3.30811H12.1288V16.6918H8.8252V3.30811Z" fill="#4D5E80"/>
<path d="M15.9526 3.30811H19.2562V16.6918H15.9526V3.30811Z" fill="#4D5E80"/>
<path d="M0.418239 3.72641C0.307335 3.72635 0.200991 3.68227 0.122569 3.60385C0.0441479 3.52542 6.33197e-05 3.41908 0 3.30818V0.918239C6.33197e-05 0.807335 0.0441479 0.700991 0.122569 0.622569C0.200991 0.544148 0.307335 0.500063 0.418239 0.5H2.80818C2.9191 0.5 3.02548 0.544064 3.10392 0.622499C3.18235 0.700935 3.22641 0.807315 3.22641 0.918239C3.22641 1.02916 3.18235 1.13554 3.10392 1.21398C3.02548 1.29241 2.9191 1.33648 2.80818 1.33648H0.836478V3.30818C0.836415 3.41908 0.79233 3.52542 0.713909 3.60385C0.635487 3.68227 0.529143 3.72635 0.418239 3.72641Z" fill="#99BAFF"/>
<path d="M27.6636 3.72641C27.5527 3.72635 27.4464 3.68227 27.368 3.60385C27.2896 3.52542 27.2455 3.41908 27.2454 3.30818V1.33648H25.2737C25.1628 1.33648 25.0564 1.29241 24.978 1.21398C24.8995 1.13554 24.8555 1.02916 24.8555 0.918239C24.8555 0.807315 24.8995 0.700935 24.978 0.622499C25.0564 0.544064 25.1628 0.5 25.2737 0.5H27.6636C27.7745 0.500063 27.8809 0.544148 27.9593 0.622569C28.0377 0.700991 28.0818 0.807335 28.0819 0.918239V3.30818C28.0818 3.41908 28.0377 3.52542 27.9593 3.60385C27.8809 3.68227 27.7745 3.72635 27.6636 3.72641Z" fill="#99BAFF"/>
<path d="M27.6636 19.5001H25.2737C25.1628 19.5001 25.0564 19.456 24.978 19.3776C24.8995 19.2992 24.8555 19.1928 24.8555 19.0819C24.8555 18.9709 24.8995 18.8646 24.978 18.7861C25.0564 18.7077 25.1628 18.6636 25.2737 18.6636H27.2454V16.6919C27.2454 16.581 27.2895 16.4746 27.3679 16.3962C27.4463 16.3177 27.5527 16.2737 27.6636 16.2737C27.7746 16.2737 27.8809 16.3177 27.9594 16.3962C28.0378 16.4746 28.0819 16.581 28.0819 16.6919V19.0819C28.0818 19.1928 28.0377 19.2991 27.9593 19.3775C27.8809 19.4559 27.7745 19.5 27.6636 19.5001Z" fill="#99BAFF"/>
<path d="M2.80818 19.5001H0.418239C0.307335 19.5 0.200991 19.4559 0.122569 19.3775C0.0441479 19.2991 6.33197e-05 19.1928 0 19.0819V16.6919C0 16.581 0.0440644 16.4746 0.122499 16.3962C0.200934 16.3177 0.307315 16.2737 0.418239 16.2737C0.529163 16.2737 0.635544 16.3177 0.713979 16.3962C0.792414 16.4746 0.836478 16.581 0.836478 16.6919V18.6636H2.80818C2.9191 18.6636 3.02548 18.7077 3.10392 18.7861C3.18235 18.8646 3.22641 18.9709 3.22641 19.0819C3.22641 19.1928 3.18235 19.2992 3.10392 19.3776C3.02548 19.456 2.9191 19.5001 2.80818 19.5001Z" fill="#99BAFF"/>
<path d="M6.91336 13.3399C6.80243 13.3399 6.69605 13.2958 6.61762 13.2174C6.53918 13.139 6.49512 13.0326 6.49512 12.9217V3.30813C6.49512 3.19721 6.53918 3.09083 6.61762 3.01239C6.69605 2.93396 6.80243 2.88989 6.91336 2.88989C7.02428 2.88989 7.13066 2.93396 7.2091 3.01239C7.28753 3.09083 7.3316 3.19721 7.3316 3.30813V12.9217C7.33153 13.0326 7.28745 13.1389 7.20903 13.2173C7.1306 13.2957 7.02426 13.3398 6.91336 13.3399Z" fill="#4D5E80"/>
<path d="M21.1682 13.3399C21.0573 13.3398 20.951 13.2957 20.8726 13.2173C20.7941 13.1389 20.7501 13.0326 20.75 12.9217V3.30813C20.75 3.19721 20.7941 3.09083 20.8725 3.01239C20.9509 2.93396 21.0573 2.88989 21.1682 2.88989C21.2792 2.88989 21.3855 2.93396 21.464 3.01239C21.5424 3.09083 21.5865 3.19721 21.5865 3.30813V12.9217C21.5865 13.0326 21.5424 13.139 21.464 13.2174C21.3855 13.2958 21.2792 13.3399 21.1682 13.3399Z" fill="#4D5E80"/>
<path d="M14.0408 13.3399C13.9299 13.3398 13.8235 13.2957 13.7451 13.2173C13.6667 13.1389 13.6226 13.0326 13.6226 12.9217V3.30813C13.6226 3.19721 13.6666 3.09083 13.7451 3.01239C13.8235 2.93396 13.9299 2.88989 14.0408 2.88989C14.1517 2.88989 14.2581 2.93396 14.3365 3.01239C14.415 3.09083 14.459 3.19721 14.459 3.30813V12.9217C14.459 13.0326 14.4149 13.1389 14.3365 13.2173C14.258 13.2957 14.1517 13.3398 14.0408 13.3399Z" fill="#4D5E80"/>
<path d="M14.0408 17.1099C13.9299 17.1099 13.8235 17.0658 13.7451 16.9874C13.6667 16.909 13.6226 16.8026 13.6226 16.6917V15.4461C13.6226 15.3351 13.6666 15.2288 13.7451 15.1503C13.8235 15.0719 13.9299 15.0278 14.0408 15.0278C14.1517 15.0278 14.2581 15.0719 14.3365 15.1503C14.415 15.2288 14.459 15.3351 14.459 15.4461V16.6917C14.459 16.8026 14.4149 16.909 14.3365 16.9874C14.258 17.0658 14.1517 17.1099 14.0408 17.1099Z" fill="#4D5E80"/>
<path d="M6.91336 17.1099C6.80243 17.1099 6.69605 17.0659 6.61762 16.9874C6.53918 16.909 6.49512 16.8026 6.49512 16.6917V15.4461C6.49512 15.3351 6.53918 15.2288 6.61762 15.1503C6.69605 15.0719 6.80243 15.0278 6.91336 15.0278C7.02428 15.0278 7.13066 15.0719 7.2091 15.1503C7.28753 15.2288 7.3316 15.3351 7.3316 15.4461V16.6917C7.33153 16.8026 7.28745 16.909 7.20903 16.9874C7.1306 17.0658 7.02426 17.1099 6.91336 17.1099Z" fill="#4D5E80"/>
<path d="M21.1682 17.1099C21.0573 17.1099 20.951 17.0658 20.8726 16.9874C20.7941 16.909 20.7501 16.8026 20.75 16.6917V15.4461C20.75 15.3351 20.7941 15.2288 20.8725 15.1503C20.9509 15.0719 21.0573 15.0278 21.1682 15.0278C21.2792 15.0278 21.3855 15.0719 21.464 15.1503C21.5424 15.2288 21.5865 15.3351 21.5865 15.4461V16.6917C21.5865 16.8026 21.5424 16.909 21.464 16.9874C21.3855 17.0659 21.2792 17.1099 21.1682 17.1099Z" fill="#4D5E80"/>
</svg>
