<svg width="20" height="20" viewBox="0 0 20 20" fill="none" xmlns="http://www.w3.org/2000/svg">
<path fill-rule="evenodd" clip-rule="evenodd" d="M13.54 2.97682C13.54 2.46771 13.0665 2.09095 12.5703 2.20543L3.07036 4.39774C2.71116 4.48063 2.45671 4.80048 2.45671 5.16913V17.1251H2.06087C1.84226 17.1251 1.66504 17.3023 1.66504 17.5209C1.66504 17.7395 1.84226 17.9167 2.06087 17.9167H2.85098H2.85254H2.8541H6.41504V15.5417C6.41504 15.1045 6.76948 14.7501 7.20671 14.7501H8.79004C9.22728 14.7501 9.58171 15.1045 9.58171 15.5417V17.9167H13.1426H13.1442H13.1458H13.54V2.97682ZM5.22754 6.8334C5.00893 6.8334 4.83171 7.01063 4.83171 7.22924V8.0209C4.83171 8.23952 5.00893 8.41674 5.22754 8.41674H6.01921C6.23782 8.41674 6.41504 8.23952 6.41504 8.0209V7.22924C6.41504 7.01063 6.23782 6.8334 6.01921 6.8334H5.22754ZM4.83171 9.60424C4.83171 9.38566 5.00893 9.20841 5.22754 9.20841H6.01921C6.23782 9.20841 6.41504 9.38566 6.41504 9.60424V10.3959C6.41504 10.6145 6.23782 10.7917 6.01921 10.7917H5.22754C5.00893 10.7917 4.83171 10.6145 4.83171 10.3959V9.60424ZM5.22754 11.5834C5.00893 11.5834 4.83171 11.7607 4.83171 11.9792V12.7709C4.83171 12.9895 5.00893 13.1667 5.22754 13.1667H6.01921C6.23782 13.1667 6.41504 12.9895 6.41504 12.7709V11.9792C6.41504 11.7607 6.23782 11.5834 6.01921 11.5834H5.22754ZM7.20671 7.22924C7.20671 7.01063 7.38393 6.8334 7.60254 6.8334H8.39421C8.61278 6.8334 8.79004 7.01063 8.79004 7.22924V8.0209C8.79004 8.23952 8.61278 8.41674 8.39421 8.41674H7.60254C7.38393 8.41674 7.20671 8.23952 7.20671 8.0209V7.22924ZM7.60254 9.20841C7.38393 9.20841 7.20671 9.38566 7.20671 9.60424V10.3959C7.20671 10.6145 7.38393 10.7917 7.60254 10.7917H8.39421C8.61278 10.7917 8.79004 10.6145 8.79004 10.3959V9.60424C8.79004 9.38566 8.61278 9.20841 8.39421 9.20841H7.60254ZM7.20671 11.9792C7.20671 11.7607 7.38393 11.5834 7.60254 11.5834H8.39421C8.61278 11.5834 8.79004 11.7607 8.79004 11.9792V12.7709C8.79004 12.9895 8.61278 13.1667 8.39421 13.1667H7.60254C7.38393 13.1667 7.20671 12.9895 7.20671 12.7709V11.9792ZM9.97754 6.8334C9.75896 6.8334 9.58171 7.01063 9.58171 7.22924V8.0209C9.58171 8.23952 9.75896 8.41674 9.97754 8.41674H10.7692C10.9878 8.41674 11.165 8.23952 11.165 8.0209V7.22924C11.165 7.01063 10.9878 6.8334 10.7692 6.8334H9.97754ZM9.58171 9.60424C9.58171 9.38566 9.75896 9.20841 9.97754 9.20841H10.7692C10.9878 9.20841 11.165 9.38566 11.165 9.60424V10.3959C11.165 10.6145 10.9878 10.7917 10.7692 10.7917H9.97754C9.75896 10.7917 9.58171 10.6145 9.58171 10.3959V9.60424ZM9.97754 11.5834C9.75896 11.5834 9.58171 11.7607 9.58171 11.9792V12.7709C9.58171 12.9895 9.75896 13.1667 9.97754 13.1667H10.7692C10.9878 13.1667 11.165 12.9895 11.165 12.7709V11.9792C11.165 11.7607 10.9878 11.5834 10.7692 11.5834H9.97754Z" fill="#E53935"/>
<path d="M14.332 5.00537V17.9167H16.3101H16.3112H16.3123H17.1029C17.3214 17.9167 17.4987 17.7394 17.4987 17.5208C17.4987 17.3023 17.3214 17.125 17.1029 17.125H16.707V6.68214C16.707 6.38229 16.5376 6.10815 16.2694 5.97405L14.332 5.00537Z" fill="#E53935"/>
<path d="M8.79036 17.9167H7.20703V15.5417H8.79036V17.9167Z" fill="#E53935"/>
</svg>
