<svg width="20" height="20" viewBox="0 0 20 20" fill="none" xmlns="http://www.w3.org/2000/svg">
<path d="M18.2147 4.48366C18.4589 4.18207 18.5822 3.80038 18.5606 3.41289C18.5389 3.02539 18.3739 2.65982 18.0975 2.38733L17.2013 1.49116C17.1414 1.43323 17.0614 1.40085 16.9781 1.40085C16.8948 1.40085 16.8147 1.43323 16.7548 1.49116L16.53 1.71599L15.6338 0.819824L15.1873 1.26632L16.0835 2.16249L15.6338 2.61216L14.7408 1.71599L14.2911 2.16249L15.1873 3.05866L14.9625 3.28349C14.933 3.31236 14.9097 3.34687 14.894 3.38496C14.8782 3.42305 14.8702 3.46393 14.8706 3.50516C14.8702 3.54686 14.8781 3.58822 14.8939 3.62683C14.9097 3.66544 14.933 3.70051 14.9625 3.72999L15.8587 4.62616C16.0985 4.86804 16.4109 5.02492 16.7482 5.07294C17.0854 5.12096 17.4291 5.05748 17.727 4.89216C18.7882 6.38358 19.3562 8.1696 19.3515 10C19.3502 11.455 18.9912 12.8874 18.306 14.171C17.6209 15.4546 16.6306 16.55 15.4225 17.3609C14.2144 18.1717 12.8254 18.6731 11.3779 18.8208C9.93041 18.9685 8.4688 18.7581 7.12177 18.208L6.8811 18.7938C8.32433 19.3834 9.89039 19.6091 11.4414 19.451C12.9923 19.2928 14.4806 18.7557 15.7751 17.887C17.0697 17.0182 18.1307 15.8445 18.8648 14.4691C19.5989 13.0938 19.9835 11.559 19.9848 10C19.9901 8.02074 19.3707 6.09028 18.2147 4.48366Z" fill="#3EBF80"/>
<path d="M4.46826 10.0001C4.46826 11.1901 4.82114 12.3533 5.48226 13.3428C6.14338 14.3322 7.08306 15.1034 8.18247 15.5588C9.28188 16.0141 10.4916 16.1333 11.6588 15.9011C12.8259 15.669 13.898 15.0959 14.7394 14.2545C15.5809 13.4131 16.1539 12.341 16.3861 11.1739C16.6182 10.0067 16.4991 8.79699 16.0437 7.69759C15.5883 6.59819 14.8171 5.65851 13.8277 4.99739C12.8382 4.33627 11.675 3.9834 10.485 3.9834C8.88967 3.98482 7.36013 4.61918 6.23209 5.74722C5.10405 6.87525 4.46969 8.40479 4.46826 10.0001ZM10.8016 6.8334V9.05007H12.385C12.439 9.05023 12.492 9.06419 12.5391 9.09062C12.5861 9.11705 12.6257 9.15508 12.6539 9.20108C12.6821 9.24709 12.6981 9.29955 12.7004 9.35348C12.7027 9.40742 12.6911 9.46103 12.6668 9.50924L10.7668 13.3092C10.7405 13.3615 10.7002 13.4054 10.6505 13.4361C10.6007 13.4669 10.5434 13.4832 10.485 13.4834C10.4604 13.4834 10.4359 13.4802 10.4121 13.4739C10.3429 13.4575 10.2812 13.4183 10.2369 13.3626C10.1927 13.3069 10.1685 13.2379 10.1683 13.1667V10.9501H8.58495C8.53097 10.9499 8.47793 10.9359 8.43086 10.9095C8.38379 10.8831 8.34426 10.8451 8.31603 10.7991C8.28779 10.7531 8.27178 10.7006 8.26952 10.6467C8.26726 10.5927 8.27883 10.5391 8.30312 10.4909L10.2031 6.6909C10.2355 6.62779 10.288 6.57736 10.3524 6.54768C10.4168 6.518 10.4893 6.5108 10.5583 6.52722C10.6273 6.54365 10.6888 6.58275 10.7329 6.63826C10.777 6.69378 10.8012 6.76249 10.8016 6.8334Z" fill="#3EBF80"/>
<path d="M6.00726 16.7165C6.0367 16.6876 6.06001 16.6531 6.07579 16.615C6.09157 16.577 6.0995 16.5361 6.09909 16.4948C6.09951 16.4531 6.0916 16.4118 6.07583 16.3732C6.06006 16.3346 6.03675 16.2995 6.00726 16.27L5.11109 15.3738C4.8712 15.132 4.55885 14.9751 4.22159 14.9271C3.88433 14.879 3.54061 14.9425 3.24274 15.1078C2.18157 13.6164 1.61354 11.8304 1.61823 10C1.61954 8.54499 1.97857 7.11262 2.66371 5.82902C3.34885 4.54542 4.33909 3.44997 5.54723 2.63913C6.75537 1.82829 8.14434 1.32693 9.59183 1.1792C11.0393 1.03148 12.5009 1.24192 13.848 1.79199L14.0886 1.20616C12.6454 0.616564 11.0794 0.390902 9.52838 0.549047C7.97741 0.707192 6.48912 1.24429 5.1946 2.11304C3.90008 2.98178 2.83904 4.15552 2.10494 5.53088C1.37084 6.90623 0.986197 8.441 0.984897 10C0.979615 11.9793 1.59909 13.9097 2.75507 15.5163C2.51081 15.8179 2.38751 16.1996 2.40916 16.5871C2.43082 16.9746 2.59589 17.3402 2.87224 17.6127L3.76841 18.5088C3.8283 18.5668 3.90835 18.5992 3.99166 18.5992C4.07498 18.5992 4.15503 18.5668 4.21492 18.5088L4.43975 18.284L5.33592 19.1802L5.78242 18.7337L4.88625 17.8375L5.33592 17.3878L6.22893 18.284L6.6786 17.8375L5.78242 16.9413L6.00726 16.7165Z" fill="#3EBF80"/>
</svg>
