<svg width="19" height="19" viewBox="0 0 19 19" fill="none" xmlns="http://www.w3.org/2000/svg">
<g clip-path="url(#clip0_3465_2055)">
<path d="M7.00995 17.6112C6.83601 17.8166 6.58998 17.5725 6.65748 17.2882L7.93671 11.9076C8.03769 11.5035 7.87979 11.0789 7.53935 10.839L4.70965 8.98383C4.5562 8.85424 4.53531 8.62539 4.66281 8.47016L10.9567 1.38353C11.1339 1.18336 11.3845 1.44216 11.2993 1.73109L9.75444 6.9679C9.62386 7.38419 9.77786 7.83711 10.1351 8.0876L12.9648 9.95843C13.1158 10.086 13.1384 10.3104 13.0159 10.4655L7.00995 17.6112Z" fill="#FFA800"/>
<path d="M17.0268 13.7585C17.0268 14.3013 16.5868 14.7413 16.0441 14.7413H10.2786L13.5194 10.8859C13.7043 10.6616 13.7846 10.369 13.7402 10.0817C13.7047 9.80959 13.5547 9.56552 13.3281 9.41081L10.4971 7.54128C10.3837 7.44724 10.3389 7.29365 10.384 7.15341L11.2371 4.25854H16.0441C16.5868 4.25854 17.0268 4.69855 17.0268 5.24131V13.7585Z" fill="#FFA800"/>
<path d="M18.9925 11.1376C18.9925 11.3185 18.8458 11.4652 18.6649 11.4652H17.6821V7.53418H18.6649C18.8458 7.53418 18.9925 7.68084 18.9925 7.86178L18.9925 11.1376Z" fill="#FFA800"/>
<path d="M6.59015 14.7412L6.43292 15.3964H4.25119C4.07028 15.3964 3.92358 15.2498 3.92358 15.0688C3.92358 14.8879 4.07024 14.7412 4.25119 14.7412H6.59015V14.7412Z" fill="#FFA800"/>
<path d="M2.9407 15.3964H1.95797C1.77706 15.3964 1.63037 15.2498 1.63037 15.0688C1.63037 14.8879 1.77703 14.7412 1.95797 14.7412H2.94074C3.12165 14.7412 3.26834 14.8879 3.26834 15.0688C3.26834 15.2498 3.12165 15.3964 2.9407 15.3964Z" fill="#FFA800"/>
<path d="M4.79813 9.82732H0.320033C0.139125 9.82732 -0.00756836 9.68067 -0.00756836 9.49972C-0.00756836 9.31881 0.139088 9.17212 0.320033 9.17212H4.03487C4.10552 9.31822 4.21414 9.44268 4.34933 9.53245L4.79813 9.82732Z" fill="#FFA800"/>
<path d="M8.11002 3.60331L7.53018 4.25847H4.90621C4.72531 4.25847 4.57861 4.11182 4.57861 3.93087C4.57861 3.74993 4.72527 3.60327 4.90621 3.60327L8.11002 3.60331Z" fill="#FFA800"/>
<path d="M3.59598 4.25847H2.61325C2.43234 4.25847 2.28564 4.11182 2.28564 3.93087C2.28564 3.74993 2.4323 3.60327 2.61325 3.60327H3.59601C3.77692 3.60327 3.92362 3.74993 3.92362 3.93087C3.92362 4.11182 3.77692 4.25847 3.59598 4.25847Z" fill="#FFA800"/>
<path d="M6.36411 5.56864L5.78101 6.22381H0.975307C0.794398 6.22381 0.647705 6.07715 0.647705 5.89621C0.647705 5.71526 0.794361 5.5686 0.975307 5.5686H6.36411V5.56864Z" fill="#FFA800"/>
<path d="M4.90955 7.20658L4.32645 7.86175H3.59591C3.415 7.86175 3.26831 7.71509 3.26831 7.53414C3.26831 7.3532 3.41497 7.20654 3.59591 7.20654H4.90955V7.20658Z" fill="#FFA800"/>
<path d="M2.2855 7.86175H1.63034C1.44943 7.86175 1.30273 7.71509 1.30273 7.53414C1.30273 7.3532 1.44939 7.20654 1.63034 7.20654H2.2855C2.46641 7.20654 2.6131 7.3532 2.6131 7.53414C2.6131 7.71509 2.46641 7.86175 2.2855 7.86175Z" fill="#FFA800"/>
<path d="M7.05854 12.7757L6.9013 13.4308H0.64767C0.466762 13.4308 0.320068 13.2842 0.320068 13.1032C0.320068 12.9223 0.466725 12.7756 0.64767 12.7756H7.05854V12.7757Z" fill="#FFA800"/>
<path d="M7.30081 11.7569L7.29098 11.7929H4.57858C4.39767 11.7929 4.25098 11.6462 4.25098 11.4653C4.25098 11.2844 4.39763 11.1377 4.57858 11.1377H6.79961L7.17961 11.3867C7.28816 11.4763 7.33532 11.6205 7.30081 11.7569Z" fill="#FFA800"/>
<path d="M3.2683 11.7929H1.95797C1.77706 11.7929 1.63037 11.6462 1.63037 11.4653C1.63037 11.2844 1.77703 11.1377 1.95797 11.1377H3.2683C3.44921 11.1377 3.59591 11.2844 3.59591 11.4653C3.59591 11.6462 3.44921 11.7929 3.2683 11.7929Z" fill="#FFA800"/>
</g>
<defs>
<clipPath id="clip0_3465_2055">
<rect width="19" height="19" fill="white" transform="translate(-0.00756836)"/>
</clipPath>
</defs>
</svg>
