<svg width="19" height="20" viewBox="0 0 19 20" fill="none" xmlns="http://www.w3.org/2000/svg">
<g clip-path="url(#clip0_1069_1038)">
<path d="M5.93758 10.0001H13.0626V12.7709C13.0626 12.8758 13.021 12.9767 12.9466 13.0508L10.9674 15.0299C10.8934 15.1044 10.7925 15.1459 10.6876 15.1459H8.31258C8.20769 15.1459 8.10675 15.1044 8.03273 15.0299L6.05356 13.0508C5.97914 12.9767 5.93758 12.8758 5.93758 12.7709V10.0001ZM13.0626 6.83341H5.93758C5.71908 6.83341 5.54175 7.01075 5.54175 7.22925V8.81258C5.54175 9.03108 5.71908 9.20841 5.93758 9.20841H13.0626C13.2811 9.20841 13.4584 9.03108 13.4584 8.81258V7.22925C13.4584 7.01075 13.2811 6.83341 13.0626 6.83341ZM12.2709 3.073C12.2709 2.74525 12.0049 2.47925 11.6772 2.47925C11.3494 2.47925 11.0834 2.74525 11.0834 3.073V6.04175H12.2709V3.073ZM8.31258 17.1251C8.31258 17.3436 8.48991 17.5209 8.70841 17.5209H10.2917C10.5102 17.5209 10.6876 17.3436 10.6876 17.1251V15.9376H8.31258V17.1251ZM7.91675 3.073C7.91675 2.74525 7.65075 2.47925 7.323 2.47925C6.99525 2.47925 6.72925 2.74525 6.72925 3.073V6.04175H7.91675V3.073ZM9.10425 19.5001H9.89591V18.3126H9.10425V19.5001Z" fill="#E86F00"/>
</g>
<defs>
<clipPath id="clip0_1069_1038">
<rect width="19" height="19" fill="white" transform="translate(0 0.5)"/>
</clipPath>
</defs>
</svg>
